<svg xmlns="http://www.w3.org/2000/svg" xmlns:xlink="http://www.w3.org/1999/xlink" width="24" height="24" viewBox="0 0 24 24">
    <defs>
        <path id="prefix__a" d="M12 .964c6.072 0 11 4.927 11 11s-4.927 11-11 11-11-4.927-11-11 4.928-11 11-11zm0 2c-4.968 0-9 4.032-9 9s4.032 9 9 9 9-4.032 9-9-4.032-9-9-9zm0 7c.552 0 1 .447 1 1v6c0 .552-.448 1-1 1s-1-.448-1-1v-6c0-.553.448-1 1-1zm0-4.003c.552 0 1 .447 1 1 0 .512-.386.935-.883.993L12 7.961c-.552 0-1-.448-1-1 0-.553.448-1 1-1z"/>
    </defs>
    <g fill="none" fill-rule="evenodd">
        <use fill="#A7B6C7" xlink:href="#prefix__a"/>
    </g>
</svg>
