<svg xmlns="http://www.w3.org/2000/svg" width="287" height="128" viewBox="0 0 287 128">
    <g fill-rule="evenodd" opacity=".5">
        <g>
            <path d="M16.043 46.491c5.997 0 10.877-4.81 10.877-10.723h5.02c0 8.642-7.131 15.672-15.897 15.672v-4.949M16 .962c8.823 0 16 7.076 16 15.774s-7.177 15.775-16 15.775c-8.822 0-16-7.077-16-15.775S7.178.962 16 .962zm0 4.981c-6.037 0-10.947 4.842-10.947 10.793 0 5.952 4.91 10.793 10.947 10.793 6.036 0 10.947-4.84 10.947-10.793 0-5.951-4.91-10.793-10.947-10.793z" opacity=".1" transform="translate(-5 -22) rotate(-30 163.533 -76.007)"/>
        </g>
        <g>
            <path d="M13.715 38.246c4.904 0 8.895-3.99 8.895-8.895h4.105c0 7.168-5.832 13-13 13v-4.105M13.851.224c7.168 0 13 5.832 13 13s-5.832 13-13 13-13-5.832-13-13 5.832-13 13-13zm0 4.105c-4.905 0-8.895 3.99-8.895 8.895 0 4.905 3.99 8.894 8.895 8.894 4.905 0 8.895-3.99 8.895-8.894 0-4.905-3.99-8.895-8.895-8.895z" opacity=".1" transform="translate(-5 -22) rotate(45 52.683 304.234)"/>
        </g>
        <g>
            <path d="M10.774 27.867c3.773 0 6.842-2.763 6.842-6.158h3.158c0 4.962-4.486 9-10 9v-2.842M10.117.945c5.239 0 9.5 4.038 9.5 9 0 4.963-4.261 9-9.5 9-5.238 0-9.5-4.037-9.5-9 0-4.962 4.262-9 9.5-9zm0 2.842c-3.584 0-6.5 2.763-6.5 6.158 0 3.396 2.916 6.158 6.5 6.158s6.5-2.762 6.5-6.158c0-3.395-2.916-6.158-6.5-6.158z" opacity=".1" transform="translate(-5 -22) rotate(-15 577.852 -796.746)"/>
        </g>
        <g>
            <path d="M7.118 19.633c2.641 0 4.79-1.841 4.79-4.105h2.21c0 3.309-3.14 6-7 6v-1.895M6.574.074c3.584 0 6.5 2.916 6.5 6.5s-2.916 6.5-6.5 6.5-6.5-2.916-6.5-6.5 2.916-6.5 6.5-6.5zm0 2.053c-2.452 0-4.447 1.995-4.447 4.447 0 2.453 1.995 4.448 4.447 4.448 2.453 0 4.448-1.995 4.448-4.448 0-2.452-1.995-4.447-4.448-4.447z" opacity=".1" transform="translate(-5 -22) rotate(-15 504.692 -140.064)"/>
        </g>
        <g>
            <path d="M7.074 20.104c2.64 0 4.79-1.841 4.79-4.105h2.21c0 3.308-3.14 6-7 6v-1.895M6.53.545c3.584 0 6.5 2.916 6.5 6.5s-2.916 6.5-6.5 6.5-6.5-2.916-6.5-6.5 2.916-6.5 6.5-6.5zm0 2.053c-2.453 0-4.448 1.995-4.448 4.447 0 2.453 1.995 4.447 4.448 4.447 2.452 0 4.447-1.994 4.447-4.447 0-2.452-1.995-4.447-4.447-4.447z" opacity=".1" transform="translate(-5 -22) rotate(45 -54.25 45.38)"/>
        </g>
        <g>
            <path d="M7.226 19.942c2.64 0 4.79-1.842 4.79-4.106h2.21c0 3.309-3.14 6-7 6v-1.894M6.682.383c3.584 0 6.5 2.915 6.5 6.5 0 3.584-2.916 6.5-6.5 6.5s-6.5-2.916-6.5-6.5c0-3.585 2.916-6.5 6.5-6.5zm0 2.052c-2.452 0-4.447 1.995-4.447 4.448 0 2.452 1.995 4.447 4.447 4.447s4.448-1.995 4.448-4.447c0-2.453-1.996-4.448-4.448-4.448z" opacity=".1" transform="translate(-5 -22) rotate(-15 309.745 -1015.033)"/>
        </g>
        <g>
            <path d="M16.627 52.074c9.337-.092 17.009-7.677 17.1-16.908l7.816-.077C41.41 48.58 30.197 59.666 16.551 59.8l.076-7.726M41.065 4.951c0 13.788-11.217 25.005-25.004 25.005-6.002 0-11.516-2.125-15.83-5.662l7.562-4.367c2.452 1.359 5.271 2.133 8.268 2.133 9.324 0 16.93-7.498 17.105-16.782L40.738.906c.215 1.317.327 2.668.327 4.045z" opacity=".1" transform="translate(-5 -22) rotate(30 75.665 288.706)"/>
        </g>
    </g>
</svg>
