<svg xmlns="http://www.w3.org/2000/svg" width="20" height="16" viewBox="0 0 20 16">
    <g fill="#FFF">
        <path d="M3.333 0H.667C.299 0 0 .299 0 .667v2.666C0 3.701.299 4 .667 4c.368 0 .666-.299.666-.667v-2h2c.368 0 .667-.298.667-.666C4 .299 3.701 0 3.333 0zM19.333 12c-.368 0-.666.299-.666.667v2h-2c-.368 0-.667.298-.667.666 0 .368.299.667.667.667h2.666c.368 0 .667-.299.667-.667v-2.666c0-.368-.299-.667-.667-.667zM19.333 0h-2.666C16.299 0 16 .299 16 .667c0 .368.299.666.667.666h2v2c0 .368.298.667.666.667.368 0 .667-.299.667-.667V.667C20 .299 19.701 0 19.333 0zM3.333 14.667h-2v-2c0-.368-.298-.667-.666-.667-.368 0-.667.299-.667.667v2.666c0 .368.299.667.667.667h2.666c.368 0 .667-.299.667-.667 0-.368-.299-.666-.667-.666zM4 3.917v8.5H2.667v-8.5H4zm2.667 0v8.5H5.333v-8.5h1.334zm5.333 0v8.5h-1.333v-8.5H12zm5.333 0v8.5H16v-8.5h1.333zm-8 7.25v1.25H8v-1.25h1.333zm5.334-4.875v6.125h-1.334V6.292h1.334zM9.333 3.917v6.125H8V3.917h1.333zm5.334 0v1.25h-1.334v-1.25h1.334z"/>
    </g>
</svg>
