<svg xmlns="http://www.w3.org/2000/svg" width="20" height="20" viewBox="0 0 20 20">
    <path fill-rule="evenodd" d="M10 10.833c1.842 0 3.333-1.492 3.333-3.333 0-1.841-1.491-3.333-3.333-3.333S6.667 5.659 6.667 7.5c0 1.841 1.491 3.333 3.333 3.333zm.01 2.5c2.98 0 5.709 1.394 7.336 3.684.267.375.179.896-.197 1.162-.375.267-.895.179-1.162-.196C14.674 16.135 12.454 15 10.01 15c-2.469 0-4.693 1.129-5.995 2.98-.265.376-.785.466-1.161.202-.377-.265-.467-.785-.202-1.161 1.617-2.3 4.352-3.688 7.358-3.688zM10 2.5c2.762 0 5 2.238 5 5s-2.238 5-5 5-5-2.238-5-5 2.238-5 5-5z" opacity=".2"/>
</svg>
