<svg xmlns="http://www.w3.org/2000/svg" width="18" height="18" viewBox="0 0 18 18">
    <path fill-rule="evenodd" d="M12.75 3.75C15.65 3.75 18 6.1 18 9s-2.35 5.25-5.25 5.25h-7.5C2.35 14.25 0 11.9 0 9s2.35-5.25 5.25-5.25h7.5zm0 1.5h-7.5C3.179 5.25 1.5 6.929 1.5 9c0 2.071 1.679 3.75 3.75 3.75h7.5c2.071 0 3.75-1.679 3.75-3.75 0-2.071-1.679-3.75-3.75-3.75zM5.308 7.5c.132 0 .23.042.29.126.06.084.083.196.07.332l-.07.647.558-.273c.126-.062.235-.075.328-.04.093.034.16.116.204.248l.036.12c.04.139.034.25-.024.332-.057.086-.151.144-.283.174l-.604.132.406.449c.096.107.143.212.143.318 0 .107-.057.201-.17.281l-.09.066c-.115.081-.22.106-.316.074-.096-.03-.178-.105-.244-.223l-.297-.526-.279.526c-.073.118-.156.193-.252.223-.096.032-.199.007-.307-.075l-.099-.065c-.109-.08-.164-.174-.167-.281-.003-.106.044-.211.14-.318l.406-.45-.595-.13c-.133-.031-.23-.089-.289-.175-.06-.083-.07-.193-.027-.332l.036-.12c.042-.132.11-.214.208-.249.095-.034.204-.02.324.041l.559.263-.073-.637c-.017-.136.005-.248.068-.332.064-.084.161-.126.293-.126h.117zm3.75 0c.132 0 .23.042.29.125.06.085.083.197.07.333l-.07.647.558-.273c.126-.062.235-.075.328-.04.093.034.16.116.204.248l.036.12c.04.139.034.25-.024.332-.057.085-.151.144-.283.174l-.604.132.406.449c.096.107.143.212.143.318 0 .107-.057.201-.17.281l-.09.066c-.115.081-.22.106-.316.074-.096-.03-.178-.105-.244-.224l-.297-.525-.279.525c-.073.119-.156.194-.252.224-.096.032-.199.007-.307-.075l-.099-.065c-.109-.08-.164-.174-.167-.281-.003-.106.044-.211.14-.318l.406-.45-.595-.13c-.133-.031-.23-.09-.289-.175-.06-.083-.07-.193-.027-.332l.036-.12c.042-.132.11-.214.208-.249.095-.034.204-.02.324.041l.559.263-.073-.637c-.017-.136.005-.248.068-.333.064-.083.161-.125.293-.125h.117zm3.75 0c.133 0 .229.042.289.126.06.084.084.196.072.332l-.072.647.56-.273c.125-.062.234-.075.327-.04.093.034.16.116.204.248l.036.121c.041.138.034.248-.023.332-.058.085-.153.143-.284.174l-.604.13.406.45c.096.107.143.212.143.318 0 .107-.057.201-.17.281l-.09.066c-.115.081-.22.106-.316.074-.096-.03-.178-.105-.243-.223l-.297-.526-.28.526c-.073.118-.156.193-.252.223-.078.026-.159.015-.243-.032l-.163-.108c-.109-.08-.165-.174-.168-.281-.003-.106.045-.211.141-.318l.406-.45-.596-.13c-.132-.031-.228-.089-.288-.175-.06-.083-.07-.193-.027-.331l.036-.121c.042-.132.11-.214.207-.249.096-.034.205-.02.325.041l.559.263-.073-.637c-.017-.136.005-.248.068-.332.063-.084.16-.126.294-.126h.117z" opacity=".2"/>
</svg>
