<svg xmlns="http://www.w3.org/2000/svg" width="20" height="20" viewBox="0 0 20 20">
    <path fill-rule="evenodd" d="M10.32 2.567l6.667 2.778c.31.13.513.433.513.77v1.388c0 .46-.373.834-.833.834h-.834v4.996c.359 0 .677.23.79.57l.834 2.5c.18.54-.222 1.097-.79 1.097H3.333c-.568 0-.97-.557-.79-1.097l.833-2.5c.114-.34.432-.57.79-.57V8.337h-.833c-.46 0-.833-.373-.833-.834V6.114c0-.336.202-.64.513-.77L9.68 2.568c.205-.085.435-.085.64 0zM15.233 15H4.767l-.277.833h11.02L15.233 15zM6.667 8.337h-.834v4.996l.834.001V8.337zm2.5 0h-.834v4.996l.834.001V8.337zm2.5 0h-.834v4.996l.834.001V8.337zm2.5 0h-.834v4.996l.834.001V8.337zM10 4.239L4.167 6.67l11.666.001L10 4.24z" opacity=".2"/>
</svg>
