<svg xmlns="http://www.w3.org/2000/svg" width="19" height="19" viewBox="0 0 19 19">
    <path fill-rule="evenodd" d="M13.458.771c.438 0 .792.355.792.792v.818h.792c1.31 0 2.375 1.064 2.375 2.375v10.292c0 1.311-1.064 2.375-2.375 2.375H3.958c-1.31 0-2.375-1.064-2.375-2.375V4.756c0-1.311 1.064-2.375 2.375-2.375h.791l.001-.818c0-.437.354-.792.792-.792.437 0 .791.355.791.792v.818h6.333v-.818c0-.437.355-.792.792-.792zM3.167 7.125v7.923c0 .437.355.792.791.792h11.084c.436 0 .791-.355.791-.792V7.125H3.167zm9.5 1.583c.874 0 1.583.71 1.583 1.584 0 .874-.71 1.583-1.583 1.583-.874 0-1.584-.71-1.584-1.583 0-.874.71-1.584 1.584-1.584zm-9.5-3.166h12.666v-.786c0-.437-.355-.791-.791-.791H3.958c-.436 0-.791.354-.791.791v.786z" opacity=".2"/>
</svg>
