<?xml version="1.0" encoding="UTF-8"?>
<svg width="174px" height="83px" viewBox="0 0 174 83" version="1.1" xmlns="http://www.w3.org/2000/svg" xmlns:xlink="http://www.w3.org/1999/xlink">
    <!-- Generator: Sketch 61 (89581) - https://sketch.com -->
    <title>Icon</title>
    <desc>Created with Sketch.</desc>
    <g id="UFE-Cards" stroke="none" stroke-width="1" fill="none" fill-rule="evenodd" opacity="0.0700000003">
        <g id="Scanare-Card---State-2" transform="translate(-1368.000000, -341.000000)" fill="#000000" fill-rule="nonzero">
            <g id="Content">
                <g id="Sidebar" transform="translate(1261.000000, 100.000000)">
                    <g id="Icon" transform="translate(107.000000, 240.500000)">
                        <path d="M13.0852693,0.5 L1.91473066,0.5 C0.857799336,0.5 0,1.04493229 0,1.71636673 L0,82.2836333 C0,82.9550677 0.857799336,83.5 1.91473066,83.5 L13.0852693,83.5 C14.1422007,83.5 15,82.9550677 15,82.2836333 L15,1.71636673 C15,1.04493229 14.1422007,0.5 13.0852693,0.5 Z" id="Path"></path>
                        <path d="M119.054475,0.5 L110.945525,0.5 C109.86965,0.5 109,1.04493229 109,1.71636673 L109,82.2836333 C109,82.9550677 109.86965,83.5 110.945525,83.5 L119.054475,83.5 C120.13035,83.5 121,82.9550677 121,82.2836333 L121,1.71636673 C121,1.04493229 120.13035,0.5 119.054475,0.5 Z" id="Path"></path>
                        <path d="M32.1666667,0.5 L24.8333333,0.5 C23.8213333,0.5 23,1.04493229 23,1.71636673 L23,82.2836333 C23,82.9550677 23.8213333,83.5 24.8333333,83.5 L32.1666667,83.5 C33.1786667,83.5 34,82.9550677 34,82.2836333 L34,1.71636673 C34,1.04493229 33.1786667,0.5 32.1666667,0.5 Z" id="Path"></path>
                        <path d="M172.166667,0.5 L164.833333,0.5 C163.821333,0.5 163,1.04493229 163,1.71636673 L163,82.2836333 C163,82.9550677 163.821333,83.5 164.833333,83.5 L172.166667,83.5 C173.1805,83.5 174,82.9550677 174,82.2836333 L174,1.71636673 C174,1.04493229 173.1805,0.5 172.166667,0.5 Z" id="Path"></path>
                        <path d="M155.094835,0.5 L149.905165,0.5 C148.851609,0.5 148,1.04493229 148,1.71636673 L148,82.2836333 C148,82.9550677 148.851609,83.5 149.905165,83.5 L155.094835,83.5 C156.146486,83.5 157,82.9550677 157,82.2836333 L157,1.71636673 C157,1.04493229 156.146486,0.5 155.094835,0.5 Z" id="Path"></path>
                        <path d="M99.1666667,0.5 L91.8333333,0.5 C90.8195,0.5 90,1.04493229 90,1.71636673 L90,82.2836333 C90,82.9550677 90.8195,83.5 91.8333333,83.5 L99.1666667,83.5 C100.178667,83.5 101,82.9550677 101,82.2836333 L101,1.71636673 C101,1.04493229 100.178667,0.5 99.1666667,0.5 Z" id="Path"></path>
                        <path d="M81,0.5 L76,0.5 C74.896,0.5 74,1.04493229 74,1.71636673 L74,82.2836333 C74,82.9550677 74.896,83.5 76,83.5 L81,83.5 C82.104,83.5 83,82.9550677 83,82.2836333 L83,1.71636673 C83,1.04493229 82.104,0.5 81,0.5 Z" id="Path"></path>
                        <path d="M141.024273,0.5 L137.975727,0.5 C136.88315,0.5 136,1.04493229 136,1.71636673 L136,82.2836333 C136,82.9550677 136.88315,83.5 137.975727,83.5 L141.024273,83.5 C142.114874,83.5 143,82.9550677 143,82.2836333 L143,1.71636673 C143,1.04493229 142.11685,0.5 141.024273,0.5 Z" id="Path"></path>
                        <path d="M64.1666667,0.5 L56.8333333,0.5 C55.8213333,0.5 55,1.04493229 55,1.71636673 L55,82.2836333 C55,82.9550677 55.8213333,83.5 56.8333333,83.5 L64.1666667,83.5 C65.1786667,83.5 66,82.9550677 66,82.2836333 L66,1.71636673 C66,1.04493229 65.1786667,0.5 64.1666667,0.5 Z" id="Path"></path>
                        <path d="M45,0.5 L43,0.5 C41.896,0.5 41,1.04493229 41,1.71636673 L41,82.2836333 C41,82.9550677 41.896,83.5 43,83.5 L45,83.5 C46.104,83.5 47,82.9550677 47,82.2836333 L47,1.71636673 C47,1.04493229 46.104,0.5 45,0.5 Z" id="Path"></path>
                        <path d="M128.884046,0.5 L128.115954,0.5 C126.950063,0.5 126,1.04493229 126,1.71636673 L126,82.2836333 C126,82.9550677 126.950063,83.5 128.115954,83.5 L128.884046,83.5 C130.049937,83.5 131,82.9550677 131,82.2836333 L131,1.71636673 C131,1.04493229 130.047821,0.5 128.884046,0.5 Z" id="Path"></path>
                    </g>
                </g>
            </g>
        </g>
    </g>
</svg>