<?xml version="1.0" encoding="UTF-8"?>
<svg width="25px" height="20px" viewBox="0 0 25 20" version="1.1" xmlns="http://www.w3.org/2000/svg" xmlns:xlink="http://www.w3.org/1999/xlink">
    <!-- Generator: Sketch 61 (89581) - https://sketch.com -->
    <title>🎨Icon</title>
    <desc>Created with Sketch.</desc>
    <defs>
        <path d="M22.5,2.84217094e-13 C23.8803559,2.84217094e-13 25,1.27959321 25,2.85714286 L25,17.1428571 C25,18.7204068 23.8803559,20 22.5,20 L2.5,20 C1.1186323,20 0,18.7206796 0,17.1428571 L0,2.85714286 C0,1.27932043 1.1186323,2.84217094e-13 2.5,2.84217094e-13 L22.5,2.84217094e-13 Z M21.5,2 L3.5,2 C2.67157288,2 2,2.67157288 2,3.5 L2,3.5 L2,16.5 C2,17.3284271 2.67157288,18 3.5,18 L3.5,18 L21.5,18 C22.3284271,18 23,17.3284271 23,16.5 L23,16.5 L23,3.5 C23,2.67157288 22.3284271,2 21.5,2 L21.5,2 Z M5.75,13 L7.25,13 C7.66421356,13 8,13.2238576 8,13.5 C8,13.7761424 7.66421356,14 7.25,14 L5.75,14 C5.33578644,14 5,13.7761424 5,13.5 C5,13.2238576 5.33578644,13 5.75,13 Z M9.75,13 L11.25,13 C11.6642136,13 12,13.2238576 12,13.5 C12,13.7761424 11.6642136,14 11.25,14 L9.75,14 C9.33578644,14 9,13.7761424 9,13.5 C9,13.2238576 9.33578644,13 9.75,13 Z M13.75,13 L15.25,13 C15.6642136,13 16,13.2238576 16,13.5 C16,13.7761424 15.6642136,14 15.25,14 L13.75,14 C13.3357864,14 13,13.7761424 13,13.5 C13,13.2238576 13.3357864,13 13.75,13 Z M17.75,13 L19.25,13 C19.6642136,13 20,13.2238576 20,13.5 C20,13.7761424 19.6642136,14 19.25,14 L17.75,14 C17.3357864,14 17,13.7761424 17,13.5 C17,13.2238576 17.3357864,13 17.75,13 Z M6.33333333,5 L7.66666667,5 C8.40304633,5 9,5.59695367 9,6.33333333 L9,7.66666667 C9,8.40304633 8.40304633,9 7.66666667,9 L6.33333333,9 C5.59695367,9 5,8.40304633 5,7.66666667 L5,6.33333333 C5,5.59695367 5.59695367,5 6.33333333,5 Z" id="path-1"></path>
    </defs>
    <g id="UFE-Cards" stroke="none" stroke-width="1" fill="none" fill-rule="evenodd">
        <g id="Card-Details" transform="translate(-1573.000000, -725.000000)">
            <g id="Content">
                <g id="Tracking-Events" transform="translate(688.000000, 100.000000)">
                    <g id="Timeline" transform="translate(26.000000, 195.000000)">
                        <g id="Card" transform="translate(427.000000, 84.000000)">
                            <g id="Receptie-card" transform="translate(0.000000, 259.000000)">
                                <g id="Icon" transform="translate(432.000000, 87.000000)">
                                    <mask id="mask-2" fill="white">
                                        <use xlink:href="#path-1"></use>
                                    </mask>
                                    <use id="🎨Icon" fill="#000000" opacity="0.200000003" xlink:href="#path-1"></use>
                                </g>
                            </g>
                        </g>
                    </g>
                </g>
            </g>
        </g>
    </g>
</svg>