<?xml version="1.0" encoding="UTF-8"?>
<svg width="26px" height="26px" viewBox="0 0 26 26" version="1.1" xmlns="http://www.w3.org/2000/svg" xmlns:xlink="http://www.w3.org/1999/xlink">
    <!-- Generator: Sketch 63.1 (92452) - https://sketch.com -->
    <title>Shape</title>
    <desc>Created with Sketch.</desc>
    <g id="UFE-Cards" stroke="none" stroke-width="1" fill="none" fill-rule="evenodd">
        <g id="Predare---Modal-State-4.2" transform="translate(-613.000000, -638.000000)" fill="#F16969" fill-rule="nonzero">
            <g id="Modal" transform="translate(505.000000, 329.000000)">
                <g id="Icon-/-File" transform="translate(53.000000, 309.000000)">
                    <g id="close" transform="translate(55.000000, 0.000000)">
                        <path d="M13,0 C5.83192187,0 0,5.83192187 0,13 C0,20.1680781 5.83192187,26 13,26 C20.1680781,26 26,20.1680781 26,13 C26,5.83192187 20.1680781,0 13,0 Z M18.2578906,16.7260234 C18.4694961,16.9375273 18.4694961,17.2805039 18.2578906,17.4920586 L17.4921094,18.2578906 C17.2805039,18.4693945 16.9376289,18.4693945 16.7260234,18.2578906 L13,14.531918 L9.27397656,18.2579414 C9.06237109,18.4694453 8.71949609,18.4694453 8.50789062,18.2579414 L7.74205859,17.4920586 C7.53045312,17.2805547 7.53045312,16.9375781 7.74205859,16.7260234 L11.468082,12.9999492 L7.74205859,9.27392578 C7.53045312,9.06242187 7.53045312,8.71944531 7.74205859,8.50789062 L8.50789062,7.74200781 C8.71949609,7.53050391 9.06237109,7.53050391 9.27397656,7.74200781 L13,11.4680312 L16.7260234,7.74200781 C16.9376289,7.53050391 17.2805039,7.53050391 17.4921094,7.74200781 L18.2579414,8.50789062 C18.4695469,8.71939453 18.4695469,9.06237109 18.2579414,9.27392578 L14.531918,12.9999492 L18.2578906,16.7260234 Z" id="Shape"></path>
                    </g>
                </g>
            </g>
        </g>
    </g>
</svg>