<svg xmlns="http://www.w3.org/2000/svg" xmlns:xlink="http://www.w3.org/1999/xlink" width="452" height="122" viewBox="0 0 452 122">
    <defs>
        <filter id="prefix__b" width="104.8%" height="119.1%" x="-2.4%" y="-6.8%" filterUnits="objectBoundingBox">
            <feOffset dy="3" in="SourceAlpha" result="shadowOffsetOuter1"/>
            <feGaussianBlur in="shadowOffsetOuter1" result="shadowBlurOuter1" stdDeviation="3"/>
            <feColorMatrix in="shadowBlurOuter1" values="0 0 0 0 0 0 0 0 0 0 0 0 0 0 0 0 0 0 0.3 0"/>
        </filter>
        <rect id="prefix__a" width="440" height="110" x="0" y="0" rx="10"/>
    </defs>
    <g fill="none" fill-rule="evenodd" transform="translate(6 3)">
        <mask id="prefix__c" fill="#fff">
            <use xlink:href="#prefix__a"/>
        </mask>
        <use fill="#000" filter="url(#prefix__b)" xlink:href="#prefix__a"/>
        <use fill="#FFF" xlink:href="#prefix__a"/>
        <g mask="url(#prefix__c)" opacity=".8">
            <g opacity=".5">
                <path fill="#000" d="M17.49 41.556c4.583-.046 8.35-3.886 8.394-8.56l3.837-.04c-.066 6.832-5.57 12.445-12.269 12.513l.038-3.913M17.045 5.133c6.821.092 12.446 5.803 12.538 12.73.092 6.929-5.383 12.49-12.205 12.398C10.557 30.17 4.932 24.458 4.84 17.53c-.092-6.928 5.383-12.49 12.205-12.397zm-8.298 12.45c.063 4.74 3.911 8.648 8.579 8.71 4.667.064 8.413-3.741 8.35-8.482-.063-4.74-3.911-8.648-8.579-8.71-4.667-.064-8.413 3.742-8.35 8.482z" opacity=".1" transform="translate(381.646 55.003)"/>
            </g>
        </g>
        <g mask="url(#prefix__c)" opacity=".8">
            <g opacity=".5">
                <path fill="#000" d="M11.66 27.012c3.056-.03 5.566-2.527 5.596-5.565l2.558-.025c-.044 4.44-3.713 8.088-8.18 8.133l.026-2.543M11.454 3.285c4.52.011 8.204 3.707 8.215 8.238.011 4.531-3.656 8.209-8.175 8.198-4.518-.011-8.204-3.707-8.215-8.238-.01-4.531 3.657-8.209 8.175-8.198zm-5.587 8.204c.008 3.101 2.53 5.63 5.621 5.637 3.092.007 5.6-2.509 5.593-5.61-.007-3.1-2.529-5.628-5.62-5.636-3.092-.007-5.601 2.509-5.594 5.61z" opacity=".1" transform="rotate(75 208.86 297.819)"/>
            </g>
        </g>
        <g mask="url(#prefix__c)" opacity=".8">
            <g opacity=".5">
                <path fill="#000" d="M11.66 27.012c3.056-.03 5.566-2.527 5.596-5.565l2.558-.025c-.044 4.44-3.713 8.088-8.18 8.133l.026-2.543M11.454 3.285c4.52.011 8.204 3.707 8.215 8.238.011 4.531-3.656 8.209-8.175 8.198-4.518-.011-8.204-3.707-8.215-8.238-.01-4.531 3.657-8.209 8.175-8.198zm-5.587 8.204c.008 3.101 2.53 5.63 5.621 5.637 3.092.007 5.6-2.509 5.593-5.61-.007-3.1-2.529-5.628-5.62-5.636-3.092-.007-5.601 2.509-5.594 5.61z" opacity=".1" transform="translate(426.776 84.336)"/>
            </g>
        </g>
        <g mask="url(#prefix__c)" opacity=".8">
            <g opacity=".5">
                <path fill="#000" d="M7.773 18.7c2.037-.02 3.711-1.749 3.731-3.852l1.705-.018c-.029 3.074-2.475 5.6-5.453 5.63l.017-1.76M7.545 2.327c3.041.057 5.563 2.633 5.62 5.741.058 3.108-2.37 5.59-5.41 5.532-3.042-.057-5.564-2.633-5.621-5.741-.058-3.108 2.37-5.59 5.41-5.532zm-3.67 5.565c.04 2.127 1.765 3.889 3.846 3.928 2.081.04 3.742-1.658 3.703-3.785-.04-2.126-1.765-3.889-3.846-3.928-2.081-.04-3.742 1.658-3.703 3.785z" opacity=".1" transform="rotate(60 110.052 368.145)"/>
            </g>
        </g>
        <g mask="url(#prefix__c)" opacity=".8">
            <g opacity=".5">
                <path fill="#000" d="M11.66 27.012c3.056-.03 5.566-2.527 5.596-5.565l2.558-.025c-.044 4.44-3.713 8.088-8.18 8.133l.026-2.543M11.454 3.285c4.52.011 8.204 3.707 8.215 8.238.011 4.531-3.656 8.209-8.175 8.198-4.518-.011-8.204-3.707-8.215-8.238-.01-4.531 3.657-8.209 8.175-8.198zm-5.587 8.204c.008 3.101 2.53 5.63 5.621 5.637 3.092.007 5.6-2.509 5.593-5.61-.007-3.1-2.529-5.628-5.62-5.636-3.092-.007-5.601 2.509-5.594 5.61z" opacity=".1" transform="rotate(60 148.85 341.006)"/>
            </g>
        </g>
        <g mask="url(#prefix__c)" opacity=".8">
            <g opacity=".5">
                <path fill="#000" d="M7.773 18.7c2.037-.02 3.711-1.749 3.731-3.852l1.705-.018c-.029 3.074-2.475 5.6-5.453 5.63l.017-1.76M7.545 2.327c3.041.057 5.563 2.633 5.62 5.741.058 3.108-2.37 5.59-5.41 5.532-3.042-.057-5.564-2.633-5.621-5.741-.058-3.108 2.37-5.59 5.41-5.532zm-3.67 5.565c.04 2.127 1.765 3.889 3.846 3.928 2.081.04 3.742-1.658 3.703-3.785-.04-2.126-1.765-3.889-3.846-3.928-2.081-.04-3.742 1.658-3.703 3.785z" opacity=".1" transform="rotate(-15 172.46 -1347.767)"/>
            </g>
        </g>
        <g mask="url(#prefix__c)" opacity=".8">
            <g opacity=".5">
                <path fill="#000" d="M11.66 27.012c3.056-.03 5.566-2.527 5.596-5.565l2.558-.025c-.044 4.44-3.713 8.088-8.18 8.133l.026-2.543M11.454 3.285c4.52.011 8.204 3.707 8.215 8.238.011 4.531-3.656 8.209-8.175 8.198-4.518-.011-8.204-3.707-8.215-8.238-.01-4.531 3.657-8.209 8.175-8.198zm-5.587 8.204c.008 3.101 2.53 5.63 5.621 5.637 3.092.007 5.6-2.509 5.593-5.61-.007-3.1-2.529-5.628-5.62-5.636-3.092-.007-5.601 2.509-5.594 5.61z" opacity=".1" transform="translate(379.776 18.336)"/>
            </g>
        </g>
        <g mask="url(#prefix__c)" opacity=".8">
            <g opacity=".5">
                <path fill="#000" d="M11.66 27.012c3.056-.03 5.566-2.527 5.596-5.565l2.558-.025c-.044 4.44-3.713 8.088-8.18 8.133l.026-2.543M11.454 3.285c4.52.011 8.204 3.707 8.215 8.238.011 4.531-3.656 8.209-8.175 8.198-4.518-.011-8.204-3.707-8.215-8.238-.01-4.531 3.657-8.209 8.175-8.198zm-5.587 8.204c.008 3.101 2.53 5.63 5.621 5.637 3.092.007 5.6-2.509 5.593-5.61-.007-3.1-2.529-5.628-5.62-5.636-3.092-.007-5.601 2.509-5.594 5.61z" opacity=".1" transform="rotate(60 222.847 357.173)"/>
            </g>
        </g>
    </g>
</svg>
