<?xml version="1.0" encoding="UTF-8"?>
<svg width="18px" height="20px" viewBox="0 0 18 20" version="1.1" xmlns="http://www.w3.org/2000/svg" xmlns:xlink="http://www.w3.org/1999/xlink">
    <!-- Generator: Sketch 61.1 (89650) - https://sketch.com -->
    <title>🎨Icon</title>
    <desc>Created with Sketch.</desc>
    <defs>
        <path d="M18,5 C18,5.552 17.553,5.999 17.001,6 L17,17 C17,18.654 15.654,20 14,20 L4,20 C2.346,20 1,18.654 1,17 L1.001,6 L1,6 C0.447,6 0,5.552 0,5 C0,4.448 0.447,4 1,4 L4,4 L4,3 C4,1.346 5.346,0 7,0 L11,0 C12.654,0 14,1.346 14,3 L14,4 L17,4 C17.553,4 18,4.448 18,5 Z M14,18 C14.552,18 15,17.552 15,17 L15.001,6 L3.001,6 L3,17 C3,17.551 3.448,18 4,18 L14,18 Z M6,3 L6,4 L12,4 L12,3 C12,2.449 11.552,2 11,2 L7,2 C6.448,2 6,2.449 6,3 Z M6.999,8 C7.552,8 7.999,8.448 7.999,9 L7.999,15 C7.999,15.552 7.552,16 6.999,16 C6.446,16 5.999,15.552 5.999,15 L5.999,9 C5.999,8.448 6.446,8 6.999,8 Z M10.999,8 C11.552,8 11.999,8.448 11.999,9 L11.999,15 C11.999,15.552 11.552,16 10.999,16 C10.446,16 9.999,15.552 9.999,15 L9.999,9 C9.999,8.448 10.446,8 10.999,8 Z" id="path-1"></path>
    </defs>
    <g id="UFE-Cards" stroke="none" stroke-width="1" fill="none" fill-rule="evenodd">
        <g id="Scanare-Card---State-8" transform="translate(-1594.000000, -367.000000)">
            <g id="Content">
                <g id="Scanning-Card" transform="translate(269.000000, 100.000000)">
                    <g id="Sidebar" transform="translate(992.000000, 0.000000)">
                        <g id="List" transform="translate(0.000000, 95.000000)">
                            <g id="Icon" transform="translate(333.000000, 172.000000)">
                                <mask id="mask-2" fill="white">
                                    <use xlink:href="#path-1"></use>
                                </mask>
                                <use id="🎨Icon" fill="#A7B6C7" xlink:href="#path-1"></use>
                            </g>
                        </g>
                    </g>
                </g>
            </g>
        </g>
    </g>
</svg>