<?xml version="1.0" encoding="UTF-8"?>
<svg width="233px" height="129px" viewBox="0 0 233 129" version="1.1" xmlns="http://www.w3.org/2000/svg" xmlns:xlink="http://www.w3.org/1999/xlink">
    <!-- Generator: Sketch 61.1 (89650) - https://sketch.com -->
    <title>Decorations</title>
    <desc>Created with Sketch.</desc>
    <g id="UFE-Cards" stroke="none" stroke-width="1" fill="none" fill-rule="evenodd">
        <g id="Receptie-Card---State-4" transform="translate(-813.000000, -227.000000)" fill="#F1F1F1" fill-rule="nonzero">
            <g id="Receptie-Card---Adaugare" transform="translate(535.000000, 151.000000)">
                <g id="Decorations" transform="translate(274.000000, 72.000000)">
                    <path d="M190,105 C183.373,105 178,110.373 178,117 C178,123.627 183.373,129 190,129 C196.627,129 202,123.627 202,117 C202,110.373 196.627,105 190,105 Z M190,124.66 C189.062,124.66 188.42,123.937 188.42,123 C188.42,122.036 189.089,121.34 190,121.34 C190.963,121.34 191.58,122.036 191.58,123 C191.58,123.938 190.963,124.66 190,124.66 Z M190.622,118.321 C190.383,119.136 189.63,119.15 189.379,118.321 C189.09,117.365 188.063,113.736 188.063,111.379 C188.063,108.269 191.954,108.254 191.954,111.379 C191.953,113.75 190.871,117.473 190.622,118.321 Z" id="Shape" transform="translate(190.000000, 117.000000) rotate(-30.000000) translate(-190.000000, -117.000000) "></path>
                    <path d="M59,72 C52.373,72 47,77.373 47,84 C47,90.627 52.373,96 59,96 C65.627,96 71,90.627 71,84 C71,77.373 65.627,72 59,72 Z M59,91.66 C58.062,91.66 57.42,90.937 57.42,90 C57.42,89.036 58.089,88.34 59,88.34 C59.963,88.34 60.58,89.036 60.58,90 C60.58,90.938 59.963,91.66 59,91.66 Z M59.622,85.321 C59.383,86.136 58.63,86.15 58.379,85.321 C58.09,84.365 57.063,80.736 57.063,78.379 C57.063,75.269 60.954,75.254 60.954,78.379 C60.953,80.75 59.871,84.473 59.622,85.321 Z" id="Shape" transform="translate(59.000000, 84.000000) rotate(-30.000000) translate(-59.000000, -84.000000) "></path>
                    <path d="M95,37 C90.02975,37 86,41.02975 86,46 C86,50.97025 90.02975,55 95,55 C99.97025,55 104,50.97025 104,46 C104,41.02975 99.97025,37 95,37 Z M94.7320508,51.4641016 C94.1383799,51.4641016 93.7320508,51.0285594 93.7320508,50.4641016 C93.7320508,49.8833787 94.1554685,49.4641016 94.7320508,49.4641016 C95.3415445,49.4641016 95.7320508,49.8833787 95.7320508,50.4641016 C95.7320508,51.0291619 95.3415445,51.4641016 94.7320508,51.4641016 Z M94.9239765,47.0148969 C94.7397051,47.5913552 94.1591346,47.6012575 93.9656111,47.0148969 C93.7427892,46.3387078 92.9509619,43.7718769 92.9509619,42.1047453 C92.9509619,39.9050088 95.9509619,39.8943991 95.9509619,42.1047453 C95.9501909,43.7817792 95.115958,46.4150973 94.9239765,47.0148969 Z" id="Shape" transform="translate(95.000000, 46.000000) rotate(-30.000000) translate(-95.000000, -46.000000) "></path>
                    <path d="M127,4 C118.71625,4 112,10.71625 112,19 C112,27.28375 118.71625,34 127,34 C135.28375,34 142,27.28375 142,19 C142,10.71625 135.28375,4 127,4 Z M126.781089,27.8791651 C125.890583,27.8791651 125.281089,27.2258519 125.281089,26.3791651 C125.281089,25.5080808 125.916215,24.8791651 126.781089,24.8791651 C127.695329,24.8791651 128.281089,25.5080808 128.281089,26.3791651 C128.281089,27.2267555 127.695329,27.8791651 126.781089,27.8791651 Z M126.623294,21.2704092 C126.316175,22.2586234 125.348558,22.2755989 125.026018,21.2704092 C124.654649,20.1112278 123.334936,15.7109463 123.334936,12.8530065 C123.334936,9.08202955 128.334936,9.06384155 128.334936,12.8530065 C128.333651,15.7279218 126.943263,20.2421814 126.623294,21.2704092 Z" id="Shape" transform="translate(127.000000, 19.000000) rotate(18.000000) translate(-127.000000, -19.000000) "></path>
                    <path d="M230,43 C226.13425,43 223,46.13425 223,50 C223,53.86575 226.13425,57 230,57 C233.86575,57 237,53.86575 237,50 C237,46.13425 233.86575,43 230,43 Z M230.232051,54.5980762 C229.63838,54.5980762 229.232051,54.162534 229.232051,53.5980762 C229.232051,53.0173533 229.655469,52.5980762 230.232051,52.5980762 C230.841544,52.5980762 231.232051,53.0173533 231.232051,53.5980762 C231.232051,54.1631365 230.841544,54.5980762 230.232051,54.5980762 Z M230.449318,50.3941792 C230.32647,50.8882863 229.939423,50.896774 229.810407,50.3941792 C229.661859,49.8145885 229.133975,47.6144478 229.133975,46.1854779 C229.133975,44.2999894 231.133975,44.2908954 231.133975,46.1854779 C231.133461,47.6229355 230.577305,49.8800653 230.449318,50.3941792 Z" id="Shape" transform="translate(230.000000, 50.000000) rotate(-345.000000) translate(-230.000000, -50.000000) "></path>
                    <path d="M38,119 C34.13425,119 31,122.13425 31,126 C31,129.86575 34.13425,133 38,133 C41.86575,133 45,129.86575 45,126 C45,122.13425 41.86575,119 38,119 Z M38.2320508,130.598076 C37.6383799,130.598076 37.2320508,130.162534 37.2320508,129.598076 C37.2320508,129.017353 37.6554685,128.598076 38.2320508,128.598076 C38.8415445,128.598076 39.2320508,129.017353 39.2320508,129.598076 C39.2320508,130.163136 38.8415445,130.598076 38.2320508,130.598076 Z M38.4493177,126.394179 C38.3264701,126.888286 37.9394231,126.896774 37.8104074,126.394179 C37.6618595,125.814589 37.1339746,123.614448 37.1339746,122.185478 C37.1339746,120.299989 39.1339746,120.290895 39.1339746,122.185478 C39.1334606,123.622935 38.5773054,125.880065 38.4493177,126.394179 Z" id="Shape" transform="translate(38.000000, 126.000000) rotate(-345.000000) translate(-38.000000, -126.000000) "></path>
                    <path d="M174,46 C162.40275,46 153,55.40275 153,67 C153,78.59725 162.40275,88 174,88 C185.59725,88 195,78.59725 195,67 C195,55.40275 185.59725,46 174,46 Z M173.830127,80.2942286 C172.049114,80.2942286 170.830127,78.9876021 170.830127,77.2942286 C170.830127,75.55206 172.10038,74.2942286 173.830127,74.2942286 C175.658608,74.2942286 176.830127,75.55206 176.830127,77.2942286 C176.830127,78.9894094 175.658608,80.2942286 173.830127,80.2942286 Z M175.188637,69.2938707 C174.758671,70.6938408 173.404006,70.7178894 172.952451,69.2938707 C172.432534,67.6516971 170.584936,61.4179649 170.584936,57.3692169 C170.584936,52.0269995 177.584936,52.0012332 177.584936,57.3692169 C177.583137,61.4420135 175.636594,67.8372146 175.188637,69.2938707 Z" id="Shape" transform="translate(174.000000, 67.000000) rotate(-330.000000) translate(-174.000000, -67.000000) "></path>
                    <path d="M19,37 C10.71625,37 4,43.71625 4,52 C4,60.28375 10.71625,67 19,67 C27.28375,67 34,60.28375 34,52 C34,43.71625 27.28375,37 19,37 Z M18.5358984,61.1961524 C17.3485566,61.1961524 16.5358984,60.3250681 16.5358984,59.1961524 C16.5358984,58.0347066 17.3827338,57.1961524 18.5358984,57.1961524 C19.7548857,57.1961524 20.5358984,58.0347066 20.5358984,59.1961524 C20.5358984,60.3262729 19.7548857,61.1961524 18.5358984,61.1961524 Z M19.5873959,53.9043838 C19.2802769,54.892598 18.3126593,54.9095735 17.9901201,53.9043838 C17.6187503,52.7452024 16.2990381,48.3449209 16.2990381,45.4869811 C16.2990381,41.7160041 21.2990381,41.6978161 21.2990381,45.4869811 C21.2977531,48.3618964 19.907365,52.876156 19.5873959,53.9043838 Z" id="Shape" transform="translate(19.000000, 52.000000) rotate(-345.000000) translate(-19.000000, -52.000000) "></path>
                </g>
            </g>
        </g>
    </g>
</svg>