<?xml version="1.0" encoding="UTF-8"?>
<svg width="287px" height="162px" viewBox="0 0 287 162" version="1.1" xmlns="http://www.w3.org/2000/svg" xmlns:xlink="http://www.w3.org/1999/xlink">
    <!-- Generator: Sketch 63.1 (92452) - https://sketch.com -->
    <title>Decorations</title>
    <desc>Created with Sketch.</desc>
    <g id="UFE-Cards" stroke="none" stroke-width="1" fill="none" fill-rule="evenodd" opacity="0.5">
        <g id="Predare---Modal-State-3" transform="translate(-676.000000, -389.000000)" fill="#000000">
            <g id="Modal" transform="translate(505.000000, 329.000000)">
                <g id="Decorations" transform="translate(166.000000, 37.000000)">
                    <g id="Group" transform="translate(86.769238, 121.100308) rotate(-30.000000) translate(-86.769238, -121.100308) translate(70.769238, 95.100308)">
                        <path d="M16.0430866,46.4911327 C22.0404409,46.4911327 26.919937,41.6808588 26.919937,35.7676016 L31.9400315,35.7676016 C31.9400315,44.4095003 24.8086929,51.4403975 16.0430866,51.4403975 L16.0430866,46.4911327" id="Fill-1" opacity="0.100000001"></path>
                        <path d="M16.0000634,0.961524227 C24.8225295,0.961524227 32,8.03814082 32,16.7362346 C32,25.4344534 24.8225295,32.51082 16.0000634,32.51082 C7.17759735,32.51082 1.18234311e-11,25.4344534 1.18234311e-11,16.7362346 C1.18234311e-11,8.03814082 7.17759735,0.961524227 16.0000634,0.961524227 Z M16.0000634,5.94297224 C9.9634257,5.94297224 5.05253147,10.7850257 5.05253147,16.7362346 C5.05253147,22.6880686 9.9634257,27.529372 16.0000634,27.529372 C22.0363207,27.529372 26.9474685,22.6880686 26.9474685,16.7362346 C26.9474685,10.7850257 22.0363207,5.94297224 16.0000634,5.94297224 Z" id="Fill-4" opacity="0.100000001"></path>
                    </g>
                    <g id="Group" transform="translate(224.899495, 111.604076) rotate(-315.000000) translate(-224.899495, -111.604076) translate(211.399495, 90.104076)">
                        <path d="M13.7149891,38.2457975 C18.6194287,38.2457975 22.6097205,34.2558545 22.6097205,29.3510281 L26.7149891,29.3510281 C26.7149891,36.5191609 20.8832144,42.3510281 13.7149891,42.3510281 L13.7149891,38.2457975" id="Fill-1" opacity="0.100000001"></path>
                        <path d="M13.8510796,0.223611076 C21.0193333,0.223611076 26.8510281,6.05550136 26.8510281,13.2236626 C26.8510281,20.3919268 21.0193333,26.2236111 13.8510796,26.2236111 C6.68282592,26.2236111 0.851028074,20.3919268 0.851028074,13.2236626 C0.851028074,6.05550136 6.68282592,0.223611076 13.8510796,0.223611076 Z M13.8510796,4.32885797 C8.94631146,4.32885797 4.9562099,8.31922883 4.9562099,13.2236626 C4.9562099,18.1286115 8.94631146,22.1183642 13.8510796,22.1183642 C18.7555386,22.1183642 22.7458463,18.1286115 22.7458463,13.2236626 C22.7458463,8.31922883 18.7555386,4.32885797 13.8510796,4.32885797 Z" id="Fill-4" opacity="0.100000001"></path>
                    </g>
                    <g id="Group" transform="translate(240.056691, 169.664803) rotate(-15.000000) translate(-240.056691, -169.664803) translate(229.556691, 154.164803)">
                        <path d="M10.7741582,27.8665152 C14.546804,27.8665152 17.6162592,25.104247 17.6162592,21.7085979 L20.7741582,21.7085979 C20.7741582,26.6711514 16.2881776,30.7085979 10.7741582,30.7085979 L10.7741582,27.8665152" id="Fill-1" opacity="0.100000001"></path>
                        <path d="M10.1173415,0.945141937 C15.3556808,0.945141937 19.6173039,4.98260444 19.6173039,9.9451776 C19.6173039,14.9078221 15.3556808,18.9451419 10.1173415,18.9451419 C4.87900233,18.9451419 0.617303903,14.9078221 0.617303903,9.9451776 C0.617303903,4.98260444 4.87900233,0.945141937 10.1173415,0.945141937 Z M10.1173415,3.78723594 C6.53308791,3.78723594 3.61724447,6.54980038 3.61724447,9.9451776 C3.61724447,13.3409115 6.53308791,16.1030479 10.1173415,16.1030479 C13.7013693,16.1030479 16.6173633,13.3409115 16.6173633,9.9451776 C16.6173633,6.54980038 13.7013693,3.78723594 10.1173415,3.78723594 Z" id="Fill-4" opacity="0.100000001"></path>
                    </g>
                    <g id="Group" transform="translate(63.539654, 169.535393) rotate(-15.000000) translate(-63.539654, -169.535393) translate(56.039654, 158.535393)">
                        <path d="M7.11816263,19.6334408 C9.75901473,19.6334408 11.9076334,17.7919287 11.9076334,15.5281627 L14.1181626,15.5281627 C14.1181626,18.8365317 10.9779762,21.5281627 7.11816263,21.5281627 L7.11816263,19.6334408" id="Fill-1" opacity="0.100000001"></path>
                        <path d="M6.57430758,0.074208182 C10.1584344,0.074208182 13.0742818,2.99015332 13.0742818,6.57423394 C13.0742818,10.1583661 10.1584344,13.0742082 6.57430758,13.0742082 C2.99018075,13.0742082 0.0742818217,10.1583661 0.0742818217,6.57423394 C0.0742818217,2.99015332 2.99018075,0.074208182 6.57430758,0.074208182 Z M6.57430758,2.12683163 C4.12192351,2.12683163 2.12687273,4.12201706 2.12687273,6.57423394 C2.12687273,9.02670839 4.12192351,11.0215847 6.57430758,11.0215847 C9.0265371,11.0215847 11.0216909,9.02670839 11.0216909,6.57423394 C11.0216909,4.12201706 9.0265371,2.12683163 6.57430758,2.12683163 Z" id="Fill-4" opacity="0.100000001"></path>
                    </g>
                    <g id="Group" transform="translate(13.724144, 99.733486) rotate(-315.000000) translate(-13.724144, -99.733486) translate(6.224144, 88.733486)">
                        <path d="M7.07371221,20.1042981 C9.71456431,20.1042981 11.863183,18.262786 11.863183,15.99902 L14.0737122,15.99902 C14.0737122,19.307389 10.9335258,21.99902 7.07371221,21.99902 L7.07371221,20.1042981" id="Fill-1" opacity="0.100000001"></path>
                        <path d="M6.52985716,0.545065476 C10.113984,0.545065476 13.0298314,3.46101062 13.0298314,7.04509123 C13.0298314,10.6292234 10.113984,13.5450655 6.52985716,13.5450655 C2.94573032,13.5450655 0.029831399,10.6292234 0.029831399,7.04509123 C0.029831399,3.46101062 2.94573032,0.545065476 6.52985716,0.545065476 Z M6.52985716,2.59768892 C4.07747309,2.59768892 2.08242231,4.59287435 2.08242231,7.04509123 C2.08242231,9.49756568 4.07747309,11.492442 6.52985716,11.492442 C8.98208668,11.492442 10.9772405,9.49756568 10.9772405,7.04509123 C10.9772405,4.59287435 8.98208668,2.59768892 6.52985716,2.59768892 Z" id="Fill-4" opacity="0.100000001"></path>
                    </g>
                    <g id="Group" transform="translate(283.355643, 89.265511) rotate(-15.000000) translate(-283.355643, -89.265511) translate(275.855643, 78.265511)">
                        <path d="M7.22605298,19.9417522 C9.86690508,19.9417522 12.0155237,18.1002401 12.0155237,15.8364741 L14.226053,15.8364741 C14.226053,19.1448431 11.0858666,21.8364741 7.22605298,21.8364741 L7.22605298,19.9417522" id="Fill-1" opacity="0.100000001"></path>
                        <path d="M6.68219792,0.382519563 C10.2663248,0.382519563 13.1821722,3.29846471 13.1821722,6.88254532 C13.1821722,10.4666774 10.2663248,13.3825196 6.68219792,13.3825196 C3.09807109,13.3825196 0.182172167,10.4666774 0.182172167,6.88254532 C0.182172167,3.29846471 3.09807109,0.382519563 6.68219792,0.382519563 Z M6.68219792,2.43514301 C4.22981386,2.43514301 2.23476308,4.43032844 2.23476308,6.88254532 C2.23476308,9.33501977 4.22981386,11.3298961 6.68219792,11.3298961 C9.13442745,11.3298961 11.1295813,9.33501977 11.1295813,6.88254532 C11.1295813,4.43032844 9.13442745,2.43514301 6.68219792,2.43514301 Z" id="Fill-4" opacity="0.100000001"></path>
                    </g>
                    <g id="Group" transform="translate(160.096788, 58.136207) rotate(-330.000000) translate(-160.096788, -58.136207) translate(125.096788, 11.636207)">
                        <path d="M34.8300892,75.2830705 C42.9620788,79.8719818 53.3978926,77.1393803 58.0932693,69.190526 L64.9001634,73.031681 C58.0381298,84.6484924 42.7857074,88.6431405 30.9001634,81.9360848 L34.8300892,75.2830705" id="Fill-1" opacity="0.100000001" transform="translate(47.900163, 77.190526) rotate(330.000000) translate(-47.900163, -77.190526) "></path>
                        <path d="M47.5629865,13.2965364 C59.5035718,20.1904365 63.6090877,35.5134559 56.7152768,47.4538866 C49.8213668,59.3944889 34.4986798,63.5001752 22.5580945,56.606275 C10.6175092,49.7123749 6.51162357,34.3895996 13.4055335,22.4489973 C20.2993444,10.5085666 35.6224012,6.40263623 47.5629865,13.2965364 Z M20.2437786,26.3970595 C15.526559,34.5675234 18.3360565,45.0508764 26.5062197,49.7679224 C34.6758681,54.484671 45.1598122,51.6762883 49.8770318,43.5058244 C54.5937558,35.3362186 51.7845096,24.8516377 43.6148613,20.1348891 C35.4446981,15.4178431 24.9605026,18.2274537 20.2437786,26.3970595 Z" id="Fill-4" opacity="0.100000001" transform="translate(35.060417, 34.951434) rotate(330.000000) translate(-35.060417, -34.951434) "></path>
                    </g>
                </g>
            </g>
        </g>
    </g>
</svg>