<svg xmlns="http://www.w3.org/2000/svg" xmlns:xlink="http://www.w3.org/1999/xlink" width="25" height="20" viewBox="0 0 25 20">
    <defs>
        <path id="a" d="M22.5 0C23.88 0 25 1.28 25 2.857v14.286C25 18.72 23.88 20 22.5 20h-20C1.119 20 0 18.72 0 17.143V2.857C0 1.28 1.119 0 2.5 0h20zm-1 2h-18A1.5 1.5 0 0 0 2 3.5v13A1.5 1.5 0 0 0 3.5 18h18a1.5 1.5 0 0 0 1.5-1.5v-13A1.5 1.5 0 0 0 21.5 2zM5.75 13h1.5c.414 0 .75.224.75.5s-.336.5-.75.5h-1.5c-.414 0-.75-.224-.75-.5s.336-.5.75-.5zm4 0h1.5c.414 0 .75.224.75.5s-.336.5-.75.5h-1.5c-.414 0-.75-.224-.75-.5s.336-.5.75-.5zm4 0h1.5c.414 0 .75.224.75.5s-.336.5-.75.5h-1.5c-.414 0-.75-.224-.75-.5s.336-.5.75-.5zm4 0h1.5c.414 0 .75.224.75.5s-.336.5-.75.5h-1.5c-.414 0-.75-.224-.75-.5s.336-.5.75-.5zM6.333 5h1.334C8.403 5 9 5.597 9 6.333v1.334C9 8.403 8.403 9 7.667 9H6.333A1.333 1.333 0 0 1 5 7.667V6.333C5 5.597 5.597 5 6.333 5z"/>
    </defs>
    <use fill="#000" fill-rule="evenodd" opacity=".7" xlink:href="#a"/>
</svg>
