<svg xmlns="http://www.w3.org/2000/svg" width="26" height="14" viewBox="0 0 26 14">
    <g fill="#000" fill-rule="nonzero">
        <path d="M24 0a2 2 0 0 1 2 2v10a2 2 0 0 1-2 2H2a2 2 0 0 1-2-2V2a2 2 0 0 1 2-2h22zm-1 2H3a1 1 0 0 0-1 1v8a1 1 0 0 0 1 1h20a1 1 0 0 0 1-1V3a1 1 0 0 0-1-1z"/>
        <path d="M5.583 8.516l1.188-1.137L6.437 9h1.126l-.355-1.6 1.209 1.116L9 7.484 7.5 7 9 6.516l-.542-.99L7.23 6.611 7.563 5H6.437l.355 1.6-1.25-1.074-.542.99 1.5.463-1.5.505zM11.583 8.516l1.188-1.137L12.437 9h1.125l-.354-1.6 1.209 1.116L15 7.484 13.5 7l1.5-.484-.542-.99-1.229 1.085L13.562 5h-1.125l.355 1.6-1.25-1.074-.542.99 1.5.463-1.5.505zM17.583 8.516l1.188-1.137L18.438 9h1.124l-.354-1.6 1.209 1.116L21 7.484 19.5 7l1.5-.484-.542-.99-1.229 1.085L19.562 5h-1.124l.354 1.6-1.25-1.074-.542.99 1.5.463-1.5.505z"/>
    </g>
</svg>
