<svg xmlns="http://www.w3.org/2000/svg" xmlns:xlink="http://www.w3.org/1999/xlink" width="18" height="19" viewBox="0 0 18 19">
    <defs>
        <path id="a" d="M25 25a4 4 0 0 0 4-4 4 4 0 0 0-4-4 4 4 0 0 0-4 4 4 4 0 0 0 4 4zm.012 3c3.577 0 6.85 1.673 8.803 4.42a1 1 0 1 1-1.63 1.16C30.609 31.36 27.945 30 25.012 30c-2.962 0-5.632 1.355-7.194 3.575a1 1 0 1 1-1.636-1.15c1.941-2.76 5.223-4.425 8.83-4.425zM25 15a6 6 0 0 1 6 6 6 6 0 0 1-6 6 6 6 0 0 1-6-6 6 6 0 0 1 6-6z"/>
    </defs>
    <use fill="#FFF" fill-rule="evenodd" transform="translate(-16 -15)" xlink:href="#a"/>
</svg>
