<?xml version="1.0" encoding="UTF-8"?>
<svg width="217px" height="154px" viewBox="0 0 217 154" version="1.1" xmlns="http://www.w3.org/2000/svg" xmlns:xlink="http://www.w3.org/1999/xlink">
    <!-- Generator: Sketch 63.1 (92452) - https://sketch.com -->
    <title>Group 2</title>
    <desc>Created with Sketch.</desc>
    <g id="UFE-Cards" stroke="none" stroke-width="1" fill="none" fill-rule="evenodd">
        <g id="Predare---Modal-State-4.1" transform="translate(-714.000000, -367.000000)">
            <g id="Modal" transform="translate(505.000000, 329.000000)">
                <g id="Group-2" transform="translate(207.000000, 37.000000)">
                    <g id="Icon" transform="translate(86.000000, 73.000000)" fill-rule="nonzero">
                        <path d="M42.8515754,0.618286094 C42.4869612,0.231933594 41.9870575,0 41.4689534,0 L10.4488368,0 C4.724818,0 0,4.73449703 0,10.4925537 L0,69.5068359 C0,75.265503 4.724818,80 10.4488368,80 L52.5511632,80 C58.275182,80 63,75.265503 63,69.5068359 L63,22.6470947 C63,22.1447753 62.7694619,21.6619873 62.4430685,21.2945556 L42.8515754,0.618286094 Z M43.408507,6.82128906 L56.5273391,20.6762695 L47.999249,20.6762695 C45.4639363,20.6762695 43.408507,18.6279297 43.408507,16.0772705 L43.408507,6.82128906 Z M52.5511632,76.1352539 L10.4488368,76.1352539 C6.8572956,76.1352539 3.84149301,73.1402588 3.84149301,69.5068359 L3.84149301,10.4925537 C3.84149301,6.8792725 6.83788186,3.86474609 10.4488368,3.86474609 L39.567014,3.86474609 L39.567014,16.0772705 C39.567014,20.772705 43.3320654,24.5410156 47.999249,24.5410156 L59.158507,24.5410156 L59.158507,69.5068359 C59.158507,73.1402588 56.1621181,76.1352539 52.5511632,76.1352539 Z" id="Shape" fill="#000000" opacity="0.100000001"></path>
                        <path d="M44.3593268,61 L17.624256,61 C16.7310691,61 16,61.8995578 16,63 C16,64.0998104 16.7310691,65 17.624256,65 L44.3757438,65 C45.2689309,65 46,64.0998104 46,63 C46,61.8995578 45.2689309,61 44.3593268,61 Z" id="Path" fill="#0075FF"></path>
                        <path d="M22.8036953,42.9192375 L29.4118263,35.1820987 L29.4118263,54.2535447 C29.4118263,55.2139295 30.1337357,56 31.0157316,56 C31.8982343,56 32.6196372,55.2139295 32.6196372,54.2535447 L32.6196372,35.1820987 L39.2277681,42.9192375 C39.5484479,43.2855187 39.9658888,43.4780369 40.398528,43.4780369 C40.7835463,43.4780369 41.184776,43.3208229 41.4892444,43.0063948 C42.1311106,42.3427859 42.1792379,41.2422874 41.5697944,40.543926 L32.1707867,29.5587995 C31.8658117,29.2096188 31.4488773,29 31.000027,29 C30.5506701,29 30.1337357,29.2096188 29.8292672,29.5587995 L20.4302597,40.543926 C19.8208162,41.2422874 19.8689435,42.3598864 20.510303,43.0063948 C21.1840852,43.6700037 22.1942517,43.617599 22.8036953,42.9192375 Z" id="Path" fill="#0075FF"></path>
                    </g>
                    <g id="Decorations" opacity="0.600000024">
                        <g id="Icons-/-Upload" transform="translate(189.500000, 130.000000) rotate(-15.000000) translate(-189.500000, -130.000000) translate(172.000000, 108.000000)">
                            <g id="Icon">
                                <path d="M23.8064308,0.340057352 C23.6038673,0.127563477 23.3261431,0 23.0383074,0 L5.80490931,0 C2.62489889,0 0,2.60397337 0,5.77090456 L0,38.2287598 C0,41.3960266 2.62489889,44 5.80490931,44 L29.1950907,44 C32.3751011,44 35,41.3960266 35,38.2287598 L35,12.4559021 C35,12.1796264 34.8719233,11.914093 34.6905936,11.7120056 L23.8064308,0.340057352 Z M24.1158372,3.75170898 L31.4040773,11.3719482 L26.6662494,11.3719482 C25.2577424,11.3719482 24.1158372,10.2453613 24.1158372,8.84249876 L24.1158372,3.75170898 Z M29.1950907,41.8743896 L5.80490931,41.8743896 C3.80960867,41.8743896 2.13416278,40.2271423 2.13416278,38.2287598 L2.13416278,5.77090456 C2.13416278,3.78359988 3.79882326,2.12561035 5.80490931,2.12561035 L21.9816745,2.12561035 L21.9816745,8.84249876 C21.9816745,11.4249878 24.0733696,13.4975586 26.6662494,13.4975586 L32.8658372,13.4975586 L32.8658372,38.2287598 C32.8658372,40.2271423 31.2011767,41.8743896 29.1950907,41.8743896 Z" id="Shape" fill="#000000" fill-rule="nonzero" opacity="0.100000001"></path>
                                <path d="M24.6440705,33.55 L9.79125336,33.55 C9.2950384,33.55 8.88888889,34.0447568 8.88888889,34.65 C8.88888889,35.2548957 9.2950384,35.75 9.79125336,35.75 L24.653191,35.75 C25.149406,35.75 25.5555556,35.2548957 25.5555556,34.65 C25.5555556,34.0447568 25.149406,33.55 24.6440705,33.55 Z" id="Path" fill="#E5E5E5" fill-rule="nonzero"></path>
                                <path d="M12.6687196,23.6055806 L16.3399035,19.3501543 L16.3399035,29.8394496 C16.3399035,30.3676612 16.7409643,30.8 17.230962,30.8 C17.7212413,30.8 18.1220206,30.3676612 18.1220206,29.8394496 L18.1220206,19.3501543 L21.7932045,23.6055806 C21.9713599,23.8070353 22.2032716,23.9129203 22.4436266,23.9129203 C22.6575257,23.9129203 22.8804311,23.8264526 23.0495802,23.6535171 C23.4061726,23.2885322 23.43291,22.683258 23.0943302,22.2991593 L17.8726593,16.2573397 C17.7032287,16.0652903 17.4715985,15.95 17.2222372,15.95 C16.9725945,15.95 16.7409643,16.0652903 16.5718151,16.2573397 L11.3501443,22.2991593 C11.0115645,22.683258 11.0383019,23.2979375 11.3946128,23.6535171 C11.7689362,24.018502 12.3301398,23.9896794 12.6687196,23.6055806 Z" id="Path" fill="#E5E5E5" fill-rule="nonzero"></path>
                            </g>
                        </g>
                        <g id="Icons-/-Upload" transform="translate(171.000000, 56.000000) rotate(28.000000) translate(-171.000000, -56.000000) translate(157.000000, 38.000000)">
                            <g id="Icon">
                                <path d="M19.0451446,0.278228742 C18.8830939,0.104370117 18.6609144,0 18.4306459,0 L4.64392745,0 C2.09991911,0 0,2.13052366 0,4.72164919 L0,31.2780762 C0,33.8694763 2.09991911,36 4.64392745,36 L23.3560726,36 C25.9000809,36 28,33.8694763 28,31.2780762 L28,10.1911926 C28,9.96514889 27.8975386,9.7478943 27.7524749,9.58255003 L19.0451446,0.278228742 Z M19.2926698,3.06958008 L25.1232618,9.30432129 L21.3329995,9.30432129 C20.2061939,9.30432129 19.2926698,8.38256836 19.2926698,7.23477171 L19.2926698,3.06958008 Z M23.3560726,34.2608643 L4.64392745,34.2608643 C3.04768693,34.2608643 1.70733023,32.9131164 1.70733023,31.2780762 L1.70733023,4.72164919 C1.70733023,3.09567262 3.03905861,1.73913574 4.64392745,1.73913574 L17.5853396,1.73913574 L17.5853396,7.23477171 C17.5853396,9.34771725 19.2586957,11.043457 21.3329995,11.043457 L26.2926698,11.043457 L26.2926698,31.2780762 C26.2926698,32.9131164 24.9609414,34.2608643 23.3560726,34.2608643 Z" id="Shape" fill="#000000" fill-rule="nonzero" opacity="0.100000001"></path>
                                <path d="M19.7152564,27.45 L7.83300268,27.45 C7.43603072,27.45 7.11111111,27.854801 7.11111111,28.35 C7.11111111,28.8449147 7.43603072,29.25 7.83300268,29.25 L19.7225528,29.25 C20.1195248,29.25 20.4444444,28.8449147 20.4444444,28.35 C20.4444444,27.854801 20.1195248,27.45 19.7152564,27.45 Z" id="Path" fill="#E5E5E5" fill-rule="nonzero"></path>
                                <path d="M10.1349757,19.3136569 L13.0719228,15.8319444 L13.0719228,24.4140951 C13.0719228,24.8462683 13.3927714,25.2 13.7847696,25.2 C14.176993,25.2 14.4976165,24.8462683 14.4976165,24.4140951 L14.4976165,15.8319444 L17.4345636,19.3136569 C17.5770879,19.4784834 17.7626173,19.5651166 17.9549013,19.5651166 C18.1260206,19.5651166 18.3043449,19.4943703 18.4396642,19.3528777 C18.724938,19.0542537 18.746328,18.5590293 18.4754642,18.2447667 L14.2981274,13.3014598 C14.162583,13.1443284 13.9772788,13.05 13.7777898,13.05 C13.5780756,13.05 13.3927714,13.1443284 13.2574521,13.3014598 L9.08011544,18.2447667 C8.80925163,18.5590293 8.83064155,19.0619489 9.11569021,19.3528777 C9.41514896,19.6515017 9.86411187,19.6279195 10.1349757,19.3136569 Z" id="Path" fill="#E5E5E5" fill-rule="nonzero"></path>
                            </g>
                        </g>
                        <g id="Icons-/-Upload" transform="translate(40.500000, 125.000000) rotate(27.000000) translate(-40.500000, -125.000000) translate(23.000000, 103.000000)">
                            <g id="Icon">
                                <path d="M23.8064308,0.340057352 C23.6038673,0.127563477 23.3261431,0 23.0383074,0 L5.80490931,0 C2.62489889,0 0,2.60397337 0,5.77090456 L0,38.2287598 C0,41.3960266 2.62489889,44 5.80490931,44 L29.1950907,44 C32.3751011,44 35,41.3960266 35,38.2287598 L35,12.4559021 C35,12.1796264 34.8719233,11.914093 34.6905936,11.7120056 L23.8064308,0.340057352 Z M24.1158372,3.75170898 L31.4040773,11.3719482 L26.6662494,11.3719482 C25.2577424,11.3719482 24.1158372,10.2453613 24.1158372,8.84249876 L24.1158372,3.75170898 Z M29.1950907,41.8743896 L5.80490931,41.8743896 C3.80960867,41.8743896 2.13416278,40.2271423 2.13416278,38.2287598 L2.13416278,5.77090456 C2.13416278,3.78359988 3.79882326,2.12561035 5.80490931,2.12561035 L21.9816745,2.12561035 L21.9816745,8.84249876 C21.9816745,11.4249878 24.0733696,13.4975586 26.6662494,13.4975586 L32.8658372,13.4975586 L32.8658372,38.2287598 C32.8658372,40.2271423 31.2011767,41.8743896 29.1950907,41.8743896 Z" id="Shape" fill="#000000" fill-rule="nonzero" opacity="0.100000001"></path>
                                <path d="M24.6440705,33.55 L9.79125336,33.55 C9.2950384,33.55 8.88888889,34.0447568 8.88888889,34.65 C8.88888889,35.2548957 9.2950384,35.75 9.79125336,35.75 L24.653191,35.75 C25.149406,35.75 25.5555556,35.2548957 25.5555556,34.65 C25.5555556,34.0447568 25.149406,33.55 24.6440705,33.55 Z" id="Path" fill="#E5E5E5" fill-rule="nonzero"></path>
                                <path d="M12.6687196,23.6055806 L16.3399035,19.3501543 L16.3399035,29.8394496 C16.3399035,30.3676612 16.7409643,30.8 17.230962,30.8 C17.7212413,30.8 18.1220206,30.3676612 18.1220206,29.8394496 L18.1220206,19.3501543 L21.7932045,23.6055806 C21.9713599,23.8070353 22.2032716,23.9129203 22.4436266,23.9129203 C22.6575257,23.9129203 22.8804311,23.8264526 23.0495802,23.6535171 C23.4061726,23.2885322 23.43291,22.683258 23.0943302,22.2991593 L17.8726593,16.2573397 C17.7032287,16.0652903 17.4715985,15.95 17.2222372,15.95 C16.9725945,15.95 16.7409643,16.0652903 16.5718151,16.2573397 L11.3501443,22.2991593 C11.0115645,22.683258 11.0383019,23.2979375 11.3946128,23.6535171 C11.7689362,24.018502 12.3301398,23.9896794 12.6687196,23.6055806 Z" id="Path" fill="#E5E5E5" fill-rule="nonzero"></path>
                            </g>
                        </g>
                        <g id="Icons-/-Upload" transform="translate(15.000000, 76.000000) rotate(-58.000000) translate(-15.000000, -76.000000) translate(6.000000, 65.000000)">
                            <g id="Icon">
                                <path d="M12.2433073,0.170028676 C12.1391318,0.0637817383 11.9963021,0 11.8482724,0 L2.98538193,0 C1.349948,0 0,1.30198668 0,2.88545228 L0,19.1143799 C0,20.6980133 1.349948,22 2.98538193,22 L15.0146181,22 C16.650052,22 18,20.6980133 18,19.1143799 L18,6.22795104 C18,6.08981321 17.934132,5.95704652 17.8408767,5.8560028 L12.2433073,0.170028676 Z M12.4024306,1.87585449 L16.1506683,5.68597412 L13.7140711,5.68597412 C12.9896961,5.68597412 12.4024306,5.12268066 12.4024306,4.42124938 L12.4024306,1.87585449 Z M15.0146181,20.9371948 L2.98538193,20.9371948 C1.95922731,20.9371948 1.09756943,20.1135712 1.09756943,19.1143799 L1.09756943,2.88545228 C1.09756943,1.89179994 1.95368053,1.06280518 2.98538193,1.06280518 L11.3048611,1.06280518 L11.3048611,4.42124938 C11.3048611,5.71249388 12.3805901,6.7487793 13.7140711,6.7487793 L16.9024306,6.7487793 L16.9024306,19.1143799 C16.9024306,20.1135712 16.0463195,20.9371948 15.0146181,20.9371948 Z" id="Shape" fill="#000000" fill-rule="nonzero" opacity="0.100000001"></path>
                                <path d="M12.6740934,16.775 L5.03550173,16.775 C4.78030546,16.775 4.57142857,17.0223784 4.57142857,17.325 C4.57142857,17.6274479 4.78030546,17.875 5.03550173,17.875 L12.678784,17.875 C12.9339803,17.875 13.1428571,17.6274479 13.1428571,17.325 C13.1428571,17.0223784 12.9339803,16.775 12.6740934,16.775 Z" id="Path" fill="#E5E5E5" fill-rule="nonzero"></path>
                                <path d="M6.51534151,11.8027903 L8.40337893,9.67507713 L8.40337893,14.9197248 C8.40337893,15.1838306 8.60963876,15.4 8.86163761,15.4 C9.11378124,15.4 9.31989633,15.1838306 9.31989633,14.9197248 L9.31989633,9.67507713 L11.2079338,11.8027903 C11.2995565,11.9035176 11.4188254,11.9564602 11.5424366,11.9564602 C11.6524418,11.9564602 11.7670789,11.9132263 11.8540698,11.8267586 C12.0374602,11.6442661 12.0512108,11.341629 11.8770841,11.1495796 L9.19165335,8.12866985 C9.10451764,8.03264516 8.98539352,7.975 8.85715058,7.975 C8.72876287,7.975 8.60963876,8.03264516 8.52264778,8.12866985 L5.83721707,11.1495796 C5.66309033,11.341629 5.676841,11.6489688 5.86008656,11.8267586 C6.05259576,12.009251 6.34121477,11.9948397 6.51534151,11.8027903 Z" id="Path" fill="#E5E5E5" fill-rule="nonzero"></path>
                            </g>
                        </g>
                        <g id="Icons-/-Upload" transform="translate(59.000000, 54.000000) rotate(-377.000000) translate(-59.000000, -54.000000) translate(45.000000, 37.000000)">
                            <g id="Icon">
                                <path d="M19.0451446,0.26277159 C18.8830939,0.0985717773 18.6609144,0 18.4306459,0 L4.64392745,0 C2.09991911,0 0,2.01216124 0,4.45933534 L0,29.5404053 C0,31.9878388 2.09991911,34 4.64392745,34 L23.3560726,34 C25.9000809,34 28,31.9878388 28,29.5404053 L28,9.62501524 C28,9.41152951 27.8975386,9.20634462 27.7524749,9.05018614 L19.0451446,0.26277159 Z M19.2926698,2.89904785 L25.1232618,8.78741455 L21.3329995,8.78741455 C20.2061939,8.78741455 19.2926698,7.91687012 19.2926698,6.83283995 L19.2926698,2.89904785 Z M23.3560726,32.3574829 L4.64392745,32.3574829 C3.04768693,32.3574829 1.70733023,31.08461 1.70733023,29.5404053 L1.70733023,4.45933534 C1.70733023,2.92369081 3.03905861,1.64251709 4.64392745,1.64251709 L17.5853396,1.64251709 L17.5853396,6.83283995 C17.5853396,8.82839962 19.2586957,10.4299316 21.3329995,10.4299316 L26.2926698,10.4299316 L26.2926698,29.5404053 C26.2926698,31.08461 24.9609414,32.3574829 23.3560726,32.3574829 Z" id="Shape" fill="#000000" fill-rule="nonzero" opacity="0.100000001"></path>
                                <path d="M19.7152564,25.925 L7.83300268,25.925 C7.43603072,25.925 7.11111111,26.3073121 7.11111111,26.775 C7.11111111,27.2424194 7.43603072,27.625 7.83300268,27.625 L19.7225528,27.625 C20.1195248,27.625 20.4444444,27.2424194 20.4444444,26.775 C20.4444444,26.3073121 20.1195248,25.925 19.7152564,25.925 Z" id="Path" fill="#E5E5E5" fill-rule="nonzero"></path>
                                <path d="M10.1349757,18.2406759 L13.0719228,14.9523919 L13.0719228,23.0577565 C13.0719228,23.4659201 13.3927714,23.8 13.7847696,23.8 C14.176993,23.8 14.4976165,23.4659201 14.4976165,23.0577565 L14.4976165,14.9523919 L17.4345636,18.2406759 C17.5770879,18.3963454 17.7626173,18.4781657 17.9549013,18.4781657 C18.1260206,18.4781657 18.3043449,18.4113497 18.4396642,18.2777178 C18.724938,17.995684 18.746328,17.5279721 18.4754642,17.2311685 L14.2981274,12.5624898 C14.162583,12.414088 13.9772788,12.325 13.7777898,12.325 C13.5780756,12.325 13.3927714,12.414088 13.2574521,12.5624898 L9.08011544,17.2311685 C8.80925163,17.5279721 8.83064155,18.0029517 9.11569021,18.2777178 C9.41514896,18.5597516 9.86411187,18.5374796 10.1349757,18.2406759 Z" id="Path" fill="#E5E5E5" fill-rule="nonzero"></path>
                            </g>
                        </g>
                        <g id="Icons-/-Upload" transform="translate(118.000000, 22.500000) rotate(-348.000000) translate(-118.000000, -22.500000) translate(102.000000, 3.000000)">
                            <g id="Icon">
                                <path d="M21.7658796,0.301414471 C21.5806787,0.113067627 21.3267594,0 21.0635954,0 L5.30734565,0 C2.39990755,0 0,2.3080673 0,5.11511995 L0,33.8845825 C0,36.6919327 2.39990755,39 5.30734565,39 L26.6926543,39 C29.6000924,39 32,36.6919327 32,33.8845825 L32,11.0404587 C32,10.795578 31.8829013,10.5602188 31.7171142,10.3810959 L21.7658796,0.301414471 Z M22.0487655,3.32537842 L28.7122992,10.0796814 L24.3805709,10.0796814 C23.0927931,10.0796814 22.0487655,9.08111572 22.0487655,7.83766935 L22.0487655,3.32537842 Z M26.6926543,37.1159363 L5.30734565,37.1159363 C3.48307078,37.1159363 1.95123454,35.6558761 1.95123454,33.8845825 L1.95123454,5.11511995 C1.95123454,3.35364534 3.47320983,1.88406372 5.30734565,1.88406372 L20.0975309,1.88406372 L20.0975309,7.83766935 C20.0975309,10.1266937 22.009938,11.9637451 24.3805709,11.9637451 L30.0487655,11.9637451 L30.0487655,33.8845825 C30.0487655,35.6558761 28.5267902,37.1159363 26.6926543,37.1159363 Z" id="Shape" fill="#000000" fill-rule="nonzero" opacity="0.100000001"></path>
                                <path d="M22.5317216,29.7375 L8.95200307,29.7375 C8.49832082,29.7375 8.12698413,30.1760344 8.12698413,30.7125 C8.12698413,31.2486576 8.49832082,31.6875 8.95200307,31.6875 L22.5400604,31.6875 C22.9937427,31.6875 23.3650794,31.2486576 23.3650794,30.7125 C23.3650794,30.1760344 22.9937427,29.7375 22.5317216,29.7375 Z" id="Path" fill="#E5E5E5" fill-rule="nonzero"></path>
                                <path d="M11.5828293,20.9231283 L14.9393403,17.1512731 L14.9393403,26.448603 C14.9393403,26.9167906 15.3060245,27.3 15.7540224,27.3 C16.2022778,27.3 16.5687046,26.9167906 16.5687046,26.448603 L16.5687046,17.1512731 L19.9252156,20.9231283 C20.0881005,21.1016903 20.300134,21.195543 20.5198872,21.195543 C20.7154521,21.195543 20.9192513,21.1189012 21.0739019,20.9656175 C21.3999292,20.6421081 21.4243748,20.1056151 21.1148162,19.7651639 L16.3407171,14.4099147 C16.1858091,14.2396891 15.9740329,14.1375 15.7460455,14.1375 C15.5178007,14.1375 15.3060245,14.2396891 15.1513738,14.4099147 L10.3772748,19.7651639 C10.0677161,20.1056151 10.0921618,20.6504446 10.4179317,20.9656175 C10.7601702,21.2891268 11.2732707,21.2635795 11.5828293,20.9231283 Z" id="Path" fill="#E5E5E5" fill-rule="nonzero"></path>
                            </g>
                        </g>
                        <g id="Icons-/-Upload" transform="translate(210.000000, 84.000000) rotate(-348.000000) translate(-210.000000, -84.000000) translate(202.000000, 75.000000)">
                            <g id="Icon">
                                <path d="M10.8829398,0.139114371 C10.7903394,0.0521850586 10.6633797,0 10.5317977,0 L2.65367283,0 C1.19995378,0 0,1.06526183 0,2.36082459 L0,15.6390381 C0,16.9347382 1.19995378,18 2.65367283,18 L13.3463272,18 C14.8000462,18 16,16.9347382 16,15.6390381 L16,5.0955963 C16,4.98257445 15.9414506,4.87394715 15.8585571,4.79127502 L10.8829398,0.139114371 Z M11.0243827,1.53479004 L14.3561496,4.65216064 L12.1902854,4.65216064 C11.5463965,4.65216064 11.0243827,4.19128418 11.0243827,3.61738586 L11.0243827,1.53479004 Z M13.3463272,17.1304321 L2.65367283,17.1304321 C1.74153539,17.1304321 0.975617272,16.4565582 0.975617272,15.6390381 L0.975617272,2.36082459 C0.975617272,1.54783631 1.73660492,0.869567871 2.65367283,0.869567871 L10.0487655,0.869567871 L10.0487655,3.61738586 C10.0487655,4.67385863 11.004969,5.52172852 12.1902854,5.52172852 L15.0243827,5.52172852 L15.0243827,15.6390381 C15.0243827,16.4565582 14.2633951,17.1304321 13.3463272,17.1304321 Z" id="Shape" fill="#000000" fill-rule="nonzero" opacity="0.100000001"></path>
                                <path d="M11.2658608,13.725 L4.47600153,13.725 C4.24916041,13.725 4.06349206,13.9274005 4.06349206,14.175 C4.06349206,14.4224573 4.24916041,14.625 4.47600153,14.625 L11.2700302,14.625 C11.4968713,14.625 11.6825397,14.4224573 11.6825397,14.175 C11.6825397,13.9274005 11.4968713,13.725 11.2658608,13.725 Z" id="Path" fill="#E5E5E5" fill-rule="nonzero"></path>
                                <path d="M5.79141467,9.65682843 L7.46967016,7.9159722 L7.46967016,12.2070475 C7.46967016,12.4231341 7.65301223,12.6 7.87701121,12.6 C8.10113888,12.6 8.28435229,12.4231341 8.28435229,12.2070475 L8.28435229,7.9159722 L9.96260778,9.65682843 C10.0440503,9.7392417 10.150067,9.78255831 10.2599436,9.78255831 C10.3577261,9.78255831 10.4596256,9.74718515 10.536951,9.67643883 C10.6999646,9.52712683 10.7121874,9.27951465 10.5574081,9.12238334 L8.17035854,6.65072988 C8.09290457,6.57216422 7.98701647,6.525 7.87302274,6.525 C7.75890033,6.525 7.65301223,6.57216422 7.57568691,6.65072988 L5.18863739,9.12238334 C5.03385807,9.27951465 5.04608089,9.53097444 5.20896583,9.67643883 C5.38008512,9.82575083 5.63663535,9.81395977 5.79141467,9.65682843 Z" id="Path" fill="#E5E5E5" fill-rule="nonzero"></path>
                            </g>
                        </g>
                    </g>
                </g>
            </g>
        </g>
    </g>
</svg>