<?xml version="1.0" encoding="UTF-8"?>
<svg width="1554px" height="45px" viewBox="0 0 1554 45" version="1.1" xmlns="http://www.w3.org/2000/svg" xmlns:xlink="http://www.w3.org/1999/xlink">
    <!-- Generator: Sketch 61 (89581) - https://sketch.com -->
    <title>input-field-focused</title>
    <desc>Created with Sketch.</desc>
    <g id="Page-1" stroke="none" stroke-width="1" fill="none" fill-rule="evenodd">
        <g id="input-field-focused" fill="#FFFFFF" fill-rule="nonzero">
            <rect id="Rectangle" stroke="#CED4DB" x="0.5" y="0.5" width="35" height="44" rx="5"></rect>
            <rect id="Rectangle" stroke="#CED4DB" x="46.5" y="0.5" width="35" height="44" rx="5"></rect>
            <rect id="Rectangle" stroke="#CED4DB" x="92.5" y="0.5" width="35" height="44" rx="5"></rect>
            <rect id="Rectangle" stroke="#CED4DB" x="138.5" y="0.5" width="35" height="44" rx="5"></rect>
            <rect id="Rectangle" stroke="#CED4DB" x="184.5" y="0.5" width="35" height="44" rx="5"></rect>
            <rect id="Rectangle" stroke="#CED4DB" x="230.5" y="0.5" width="35" height="44" rx="5"></rect>
            <rect id="Rectangle" stroke="#CED4DB" x="276.5" y="0.5" width="35" height="44" rx="5"></rect>
            <rect id="Rectangle" stroke="#CED4DB" x="322.5" y="0.5" width="35" height="44" rx="5"></rect>
            <rect id="Rectangle" stroke="#CED4DB" x="368.5" y="0.5" width="35" height="44" rx="5"></rect>
            <rect id="Rectangle" stroke="#CED4DB" x="414.5" y="0.5" width="35" height="44" rx="5"></rect>
            <rect id="Rectangle" stroke="#CED4DB" x="460.5" y="0.5" width="35" height="44" rx="5"></rect>
            <rect id="Rectangle" stroke="#CED4DB" x="506.5" y="0.5" width="35" height="44" rx="5"></rect>
            <rect id="Rectangle" stroke="#CED4DB" x="552.5" y="0.5" width="35" height="44" rx="5"></rect>
            <rect id="Rectangle" stroke="#CED4DB" x="598.5" y="0.5" width="35" height="44" rx="5"></rect>
            <rect id="Rectangle" stroke="#CED4DB" x="644.5" y="0.5" width="35" height="44" rx="5"></rect>
            <rect id="Rectangle" stroke="#CED4DB" x="690.5" y="0.5" width="35" height="44" rx="5"></rect>
            <rect id="Rectangle" stroke="#CED4DB" x="736.5" y="0.5" width="35" height="44" rx="5"></rect>
            <rect id="Rectangle" stroke="#0077FF" x="782.5" y="0.5" width="35" height="44" rx="5"></rect>
            <rect id="Rectangle" stroke="#CED4DB" x="828.5" y="0.5" width="35" height="44" rx="5"></rect>
            <rect id="Rectangle" stroke="#CED4DB" x="874.5" y="0.5" width="35" height="44" rx="5"></rect>
            <rect id="Rectangle" stroke="#CED4DB" x="920.5" y="0.5" width="35" height="44" rx="5"></rect>
            <rect id="Rectangle" stroke="#CED4DB" x="966.5" y="0.5" width="35" height="44" rx="5"></rect>
            <rect id="Rectangle" stroke="#CED4DB" x="1012.5" y="0.5" width="35" height="44" rx="5"></rect>
            <rect id="Rectangle" stroke="#CED4DB" x="1058.5" y="0.5" width="35" height="44" rx="5"></rect>
            <rect id="Rectangle" stroke="#CED4DB" x="1104.5" y="0.5" width="35" height="44" rx="5"></rect>
            <rect id="Rectangle" stroke="#CED4DB" x="1150.5" y="0.5" width="35" height="44" rx="5"></rect>
            <rect id="Rectangle" stroke="#CED4DB" x="1196.5" y="0.5" width="35" height="44" rx="5"></rect>
            <rect id="Rectangle" stroke="#CED4DB" x="1242.5" y="0.5" width="35" height="44" rx="5"></rect>
            <rect id="Rectangle" stroke="#CED4DB" x="1288.5" y="0.5" width="35" height="44" rx="5"></rect>
            <rect id="Rectangle" stroke="#CED4DB" x="1334.5" y="0.5" width="35" height="44" rx="5"></rect>
            <rect id="Rectangle" stroke="#CED4DB" x="1380.5" y="0.5" width="35" height="44" rx="5"></rect>
            <rect id="Rectangle" stroke="#CED4DB" x="1426.5" y="0.5" width="35" height="44" rx="5"></rect>
            <rect id="Rectangle" stroke="#CED4DB" x="1472.5" y="0.5" width="35" height="44" rx="5"></rect>
            <rect id="Rectangle" stroke="#CED4DB" x="1518.5" y="0.5" width="35" height="44" rx="5"></rect>
        </g>
    </g>
</svg>
