<svg xmlns="http://www.w3.org/2000/svg" viewBox="0 0 97.28 97.28"><defs><style>.cls-1{fill:#f0f0f0;}.cls-2{fill:#245fb5;}.cls-3{fill:#e03232;}</style></defs><title>lang-en</title><g id="Layer_2" data-name="Layer 2"><g id="Layer_1-2" data-name="Layer 1"><path class="cls-1" d="M97.28,48.64A48.64,48.64,0,1,1,48.64,0,48.63,48.63,0,0,1,97.28,48.64Z"/><path class="cls-2" d="M10.06,19A48.18,48.18,0,0,0,1.68,36H27Z"/><path class="cls-2" d="M95.61,36A48.53,48.53,0,0,0,87.23,19L70.3,36Z"/><path class="cls-2" d="M1.68,61.33a48.15,48.15,0,0,0,8.38,16.93L27,61.33Z"/><path class="cls-2" d="M78.26,10.06A48.23,48.23,0,0,0,61.33,1.68V27Z"/><path class="cls-2" d="M19,87.23A48.53,48.53,0,0,0,36,95.61V70.3Z"/><path class="cls-2" d="M36,1.68A48.18,48.18,0,0,0,19,10.06L36,27Z"/><path class="cls-2" d="M61.33,95.61a48.49,48.49,0,0,0,16.93-8.38L61.33,70.3Z"/><path class="cls-2" d="M70.3,61.33,87.23,78.26a48.49,48.49,0,0,0,8.38-16.93Z"/><path class="cls-3" d="M96.87,42.3H55V.41A49.3,49.3,0,0,0,42.3.41V42.3H.41A49.3,49.3,0,0,0,.41,55H42.3V96.87a49.3,49.3,0,0,0,12.69,0V55H96.87a49.3,49.3,0,0,0,0-12.69Z"/><path class="cls-3" d="M61.33,61.33,83,83c1-1,1.95-2,2.86-3.13L67.31,61.33Z"/><path class="cls-3" d="M36,61.33h0L14.25,83c1,1,2,1.95,3.12,2.86L36,67.31Z"/><path class="cls-3" d="M36,36l-21.7-21.7c-1,1-1.95,2-2.86,3.12L30,36Z"/><path class="cls-3" d="M61.33,36,83,14.25c-1-1-2-1.95-3.13-2.86L61.33,30Z"/></g></g></svg>