<?xml version="1.0" encoding="UTF-8"?>
<svg width="14px" height="18px" viewBox="0 0 14 18" version="1.1" xmlns="http://www.w3.org/2000/svg" xmlns:xlink="http://www.w3.org/1999/xlink">
    <!-- Generator: Sketch 61 (89581) - https://sketch.com -->
    <title>Shape</title>
    <desc>Created with Sketch.</desc>
    <g id="UFE-Cards" stroke="none" stroke-width="1" fill="none" fill-rule="evenodd">
        <g id="Card-Details" transform="translate(-1162.000000, -1071.000000)" fill="#55ADEB" fill-rule="nonzero">
            <g id="Content">
                <g id="Tracking-Events" transform="translate(688.000000, 100.000000)">
                    <g id="Timeline" transform="translate(26.000000, 195.000000)">
                        <g id="Card" transform="translate(427.000000, 84.000000)">
                            <g id="Distributie-card" transform="translate(0.000000, 666.000000)">
                                <g id="Icon" transform="translate(0.000000, 7.000000)">
                                    <path d="M30.8953077,26.129793 C32.1138821,25.0417422 33.7617897,23.570207 33.9119846,20.0546875 L35,20.0546875 L35,19 L21,19 L21,20.0546875 L22.0880154,20.0546875 C22.2382103,23.570207 23.8861179,25.0417422 25.1046923,26.129793 C25.9221128,26.8596719 26.3846154,27.3064023 26.3846154,28 C26.3846154,28.6935977 25.9221128,29.1403281 25.1046923,29.870207 C23.8861179,30.9582578 22.2382103,32.429793 22.0880154,35.9453125 L21,35.9453125 L21,37 L35,37 L35,35.9453125 L33.9119846,35.9453125 C33.7617897,32.429793 32.1138821,30.9582578 30.8953077,29.870207 C30.0778872,29.1403281 29.6153846,28.6935977 29.6153846,28 C29.6153846,27.3064023 30.0778872,26.8596719 30.8953077,26.129793 Z M28,31.6351939 C27.8244311,31.666102 27.6509843,31.7110739 27.481706,31.7708209 L24,33 C24.568581,31.7665856 25.4843587,31.0539211 26.2779241,30.4366643 C27.1635371,29.747795 28,29.0971407 28,28 L28,31.6351939 Z M29.7220759,30.43668 C30.5156413,31.0539408 31.4313811,31.76661 32,33 L28.518294,31.770813 C28.3490157,31.7110656 28.1755689,31.6660933 28,31.635185 L28,28 C28,29.0971478 28.8364629,29.7478064 29.7220759,30.43668 Z M23.5039973,22 C23.2346764,21.4600286 23.0486805,20.8080571 23,20 L33,20 C32.9513195,20.8080571 32.7653607,21.4600286 32.4960027,22 L23.5039973,22 Z" id="Shape"></path>
                                </g>
                            </g>
                        </g>
                    </g>
                </g>
            </g>
        </g>
    </g>
</svg>