<?xml version="1.0" encoding="UTF-8"?>
<svg width="26px" height="14px" viewBox="0 0 26 14" version="1.1" xmlns="http://www.w3.org/2000/svg" xmlns:xlink="http://www.w3.org/1999/xlink">
    <!-- Generator: Sketch 61 (89581) - https://sketch.com -->
    <title>pin</title>
    <desc>Created with Sketch.</desc>
    <g id="UFE-Cards" stroke="none" stroke-width="1" fill="none" fill-rule="evenodd" opacity="0.200000003">
        <g id="Card-Details" transform="translate(-1073.000000, -604.000000)" fill="#000000">
            <g id="Content">
                <g id="Tracking-Events" transform="translate(688.000000, 100.000000)">
                    <g id="Timeline" transform="translate(26.000000, 195.000000)">
                        <g id="PIN" transform="translate(0.000000, 211.000000)">
                            <g id="Predare-client">
                                <g id="Icon" transform="translate(359.000000, 98.000000)">
                                    <g id="pin">
                                        <g>
                                            <path d="M24,0 C25.1045695,-2.02906125e-16 26,0.8954305 26,2 L26,12 C26,13.1045695 25.1045695,14 24,14 L2,14 C0.8954305,14 1.3527075e-16,13.1045695 0,12 L0,2 C-1.3527075e-16,0.8954305 0.8954305,2.02906125e-16 2,0 L24,0 Z M23,2 L3,2 C2.44771525,2 2,2.44771525 2,3 L2,3 L2,11 C2,11.5522847 2.44771525,12 3,12 L3,12 L23,12 C23.5522847,12 24,11.5522847 24,11 L24,11 L24,3 C24,2.44771525 23.5522847,2 23,2 L23,2 Z" id="Shape" fill-rule="nonzero"></path>
                                            <polygon id="Path" fill-rule="nonzero" points="5.58328267 8.51584336 6.77092199 7.37890965 6.43748734 9 7.56251266 9 7.20840932 7.4 8.41671733 8.51584336 9 7.48425902 7.5 7.00010238 9 6.51574098 8.45845998 5.52633734 7.22917933 6.61054518 7.56251266 5 6.43748734 5 6.791692 6.60010238 5.54174265 5.52633734 5 6.51574098 6.5 6.97901203 5 7.48425902"></polygon>
                                            <polygon id="Path" fill-rule="nonzero" points="11.5832827 8.51584336 12.7708207 7.37890965 12.4374873 9 13.5624113 9 13.2084093 7.4 14.416616 8.51584336 15 7.48425902 13.5 7.00010238 15 6.51574098 14.4583587 5.52633734 13.229078 6.61054518 13.5624113 5 12.4374873 5 12.791692 6.60010238 11.5416413 5.52633734 11 6.51574098 12.5 6.97901203 11 7.48425902"></polygon>
                                            <polygon id="Path" fill-rule="nonzero" points="17.5833692 8.51584336 18.7708771 7.37890965 18.4375522 9 19.5624478 9 19.2083534 7.4 20.4166308 8.51584336 21 7.48425902 19.500038 7.00010238 21 6.51574098 20.4583724 5.52633734 19.2291229 6.61054518 19.5624478 5 18.4375522 5 18.7917479 6.60010238 17.5417289 5.52633734 17 6.51574098 18.499962 6.97901203 17 7.48425902"></polygon>
                                        </g>
                                    </g>
                                </g>
                            </g>
                        </g>
                    </g>
                </g>
            </g>
        </g>
    </g>
</svg>