<?xml version="1.0" encoding="UTF-8"?>
<svg width="13px" height="18px" viewBox="0 0 13 18" version="1.1" xmlns="http://www.w3.org/2000/svg" xmlns:xlink="http://www.w3.org/1999/xlink">
    <!-- Generator: Sketch 61 (89581) - https://sketch.com -->
    <title>Combined Shape</title>
    <desc>Created with Sketch.</desc>
    <g id="UFE-Cards" stroke="none" stroke-width="1" fill="none" fill-rule="evenodd">
        <g id="Card-Details" transform="translate(-1162.000000, -405.000000)" fill="#C9D1DA" fill-rule="nonzero">
            <g id="Content">
                <g id="Tracking-Events" transform="translate(688.000000, 100.000000)">
                    <g id="Timeline" transform="translate(26.000000, 195.000000)">
                        <g id="Card" transform="translate(427.000000, 84.000000)">
                            <g id="Predare-client">
                                <g id="Icon" transform="translate(0.000000, 7.000000)">
                                    <path d="M27.4859521,33 C28.5909521,33 29.4859521,33.895 29.4859521,35 C29.4859521,36.105 28.5909521,37 27.4859521,37 C26.3809521,37 25.4859521,36.105 25.4859521,35 C25.4859521,33.895 26.3809521,33 27.4859521,33 Z M27.5013163,19 C30.0168323,19 32.2042375,20.4181818 33.0791995,22.4909091 C33.8447914,24.3454545 33.5166806,26.3090909 32.2042375,27.6181818 C31.6573862,28.1636364 31.0011646,28.4909091 30.4543133,28.8181818 C29.469981,29.3636364 29.1418702,29.9090909 29.1418702,31 L25.8607624,31 C25.8607624,27.7272727 27.6106866,26.6363636 28.8137594,25.9818182 C29.2512405,25.7636364 29.5793512,25.5454545 29.7980918,25.3272727 C30.3449431,24.7818182 30.1262025,24.0181818 30.0168323,23.8 C29.6887215,23.0363636 28.9231297,22.2727273 27.5013163,22.2727273 C25.2045409,22.2727273 24.7670598,24.3454545 24.7670598,24.7818182 L21.4859521,24.3454545 C21.7046926,22.4909091 23.3452465,19 27.5013163,19 Z" id="Combined-Shape"></path>
                                </g>
                            </g>
                        </g>
                    </g>
                </g>
            </g>
        </g>
    </g>
</svg>