<?xml version="1.0" encoding="UTF-8"?>
<svg width="70px" height="70px" viewBox="0 0 70 70" version="1.1" xmlns="http://www.w3.org/2000/svg" xmlns:xlink="http://www.w3.org/1999/xlink">
    <!-- Generator: Sketch 63.1 (92452) - https://sketch.com -->
    <title>cut</title>
    <desc>Created with Sketch.</desc>
    <g id="UFE-Cards" stroke="none" stroke-width="1" fill="none" fill-rule="evenodd">
        <g id="Distrugere---State-2" transform="translate(-706.000000, -271.000000)">
            <g id="cut" transform="translate(706.000000, 271.000000)">
                <circle id="Oval" fill="#F16969" cx="35" cy="35" r="35"></circle>
                <g id="Icons-/-Scissors" transform="translate(16.000000, 18.000000)" fill="#FFFFFF" fill-rule="nonzero">
                    <path d="M38.0000132,5.88497471 C36.244146,3.36023185 32.7530444,2.69487801 30.2449702,4.46272856 L17.3488686,13.5541791 L12.6595054,10.2478846 C14.4055757,7.21269339 13.584271,3.28505823 10.6771225,1.23579229 C7.60713817,-0.927803313 3.37733739,-0.176963752 1.22751708,2.91337471 C-0.92133839,6.00386262 -0.17618214,10.2634275 2.89387645,12.4279198 C5.00050145,13.9130099 7.65404442,14.0243505 9.80579442,12.9496516 L15.549435,16.9986406 L9.80631395,21.0471813 C7.65456395,19.9730055 5.00116942,20.0843461 2.89439598,21.5689132 C-0.175514172,23.7334055 -0.92074464,27.992522 1.22803661,31.0829351 C3.37785692,34.1737967 7.60810302,34.9246362 10.6775679,32.7610406 C13.5843452,30.7117747 14.4055015,26.7841395 12.6599507,23.7489483 L17.349314,20.4426538 L30.244896,29.5335813 C32.7529702,31.3019549 36.2440718,30.6361527 38.0000132,28.1113351 L22.2351343,16.9985659 L38.0000132,5.88497471 Z M6.80045458,10.3882187 C4.85792723,10.3882187 3.28307958,8.80262306 3.28307958,6.84683845 C3.28307958,4.89105383 4.85800145,3.30545823 6.80045458,3.30545823 C8.74342723,3.30545823 10.3178296,4.89105383 10.3178296,6.84683845 C10.3178296,8.80262306 8.74342723,10.3882187 6.80045458,10.3882187 Z M6.80045458,30.692122 C4.85792723,30.692122 3.28307958,29.1065264 3.28307958,27.1507417 C3.28307958,25.1949571 4.85792723,23.6093615 6.80045458,23.6093615 C8.74342723,23.6093615 10.3178296,25.1949571 10.3178296,27.1507417 C10.3178296,29.1064516 8.74342723,30.692122 6.80045458,30.692122 Z" id="Shape"></path>
                </g>
            </g>
        </g>
    </g>
</svg>