<?xml version="1.0" encoding="UTF-8"?>
<svg width="63px" height="80px" viewBox="0 0 63 80" version="1.1" xmlns="http://www.w3.org/2000/svg" xmlns:xlink="http://www.w3.org/1999/xlink">
    <!-- Generator: Sketch 63.1 (92452) - https://sketch.com -->
    <title>Icon</title>
    <desc>Created with Sketch.</desc>
    <g id="UFE-Cards" stroke="none" stroke-width="1" fill="none" fill-rule="evenodd">
        <g id="Predare---Modal-State-4.1" transform="translate(-798.000000, -439.000000)" fill-rule="nonzero">
            <g id="Modal" transform="translate(505.000000, 329.000000)">
                <g id="Icon" transform="translate(293.000000, 110.000000)">
                    <path d="M42.8515754,0.618286094 C42.4869612,0.231933594 41.9870575,0 41.4689534,0 L10.4488368,0 C4.724818,0 0,4.73449703 0,10.4925537 L0,69.5068359 C0,75.265503 4.724818,80 10.4488368,80 L52.5511632,80 C58.275182,80 63,75.265503 63,69.5068359 L63,22.6470947 C63,22.1447753 62.7694619,21.6619873 62.4430685,21.2945556 L42.8515754,0.618286094 Z M43.408507,6.82128906 L56.5273391,20.6762695 L47.999249,20.6762695 C45.4639363,20.6762695 43.408507,18.6279297 43.408507,16.0772705 L43.408507,6.82128906 Z M52.5511632,76.1352539 L10.4488368,76.1352539 C6.8572956,76.1352539 3.84149301,73.1402588 3.84149301,69.5068359 L3.84149301,10.4925537 C3.84149301,6.8792725 6.83788186,3.86474609 10.4488368,3.86474609 L39.567014,3.86474609 L39.567014,16.0772705 C39.567014,20.772705 43.3320654,24.5410156 47.999249,24.5410156 L59.158507,24.5410156 L59.158507,69.5068359 C59.158507,73.1402588 56.1621181,76.1352539 52.5511632,76.1352539 Z" id="Shape" fill="#000000" opacity="0.100000001"></path>
                    <path d="M44.3593268,61 L17.624256,61 C16.7310691,61 16,61.8995578 16,63 C16,64.0998104 16.7310691,65 17.624256,65 L44.3757438,65 C45.2689309,65 46,64.0998104 46,63 C46,61.8995578 45.2689309,61 44.3593268,61 Z" id="Path" fill="#0075FF"></path>
                    <path d="M22.8036953,42.9192375 L29.4118263,35.1820987 L29.4118263,54.2535447 C29.4118263,55.2139295 30.1337357,56 31.0157316,56 C31.8982343,56 32.6196372,55.2139295 32.6196372,54.2535447 L32.6196372,35.1820987 L39.2277681,42.9192375 C39.5484479,43.2855187 39.9658888,43.4780369 40.398528,43.4780369 C40.7835463,43.4780369 41.184776,43.3208229 41.4892444,43.0063948 C42.1311106,42.3427859 42.1792379,41.2422874 41.5697944,40.543926 L32.1707867,29.5587995 C31.8658117,29.2096188 31.4488773,29 31.000027,29 C30.5506701,29 30.1337357,29.2096188 29.8292672,29.5587995 L20.4302597,40.543926 C19.8208162,41.2422874 19.8689435,42.3598864 20.510303,43.0063948 C21.1840852,43.6700037 22.1942517,43.617599 22.8036953,42.9192375 Z" id="Path" fill="#0075FF"></path>
                </g>
            </g>
        </g>
    </g>
</svg>