<?xml version="1.0" encoding="UTF-8"?>
<svg width="18px" height="19px" viewBox="0 0 18 19" version="1.1" xmlns="http://www.w3.org/2000/svg" xmlns:xlink="http://www.w3.org/1999/xlink">
    <!-- Generator: Sketch 61 (89581) - https://sketch.com -->
    <title>🎨Icon</title>
    <desc>Created with Sketch.</desc>
    <g id="UFE-Cards" stroke="none" stroke-width="1" fill="none" fill-rule="evenodd" opacity="0.699999988">
        <g id="Card-Details" transform="translate(-299.000000, -209.000000)" fill="#000000">
            <g id="Content">
                <g id="Sidebar" transform="translate(269.000000, 100.000000)">
                    <g id="Detalii-client" transform="translate(30.000000, 109.000000)">
                        <path d="M9.00008385,10 C11.2101187,10 13.0000839,8.20968149 13.0000839,6 C13.0000839,3.79031851 11.2101187,2 9.00008385,2 C6.79004904,2 5.00008385,3.79031851 5.00008385,6 C5.00008385,8.20968149 6.79004904,10 9.00008385,10 Z M9.01243636,13 C12.5889848,13 15.8623719,14.6725126 17.8152409,17.42076 C18.1351463,17.8709588 18.0295227,18.4952516 17.5793239,18.815157 C17.1291251,19.1350625 16.5048323,19.0294388 16.1849268,18.57924 C14.6089937,16.3614497 11.9444089,15 9.01243636,15 C6.04954555,15 3.38023726,16.3545026 1.81798948,18.5753524 C1.50023113,19.0270692 0.876448261,19.135664 0.424731455,18.8179056 C-0.0269853502,18.5001473 -0.13558013,17.8763644 0.182178226,17.4246476 C2.12304293,14.6655661 5.4053617,13 9.01243636,13 Z M9.00008385,0 C12.3147765,0 15.0000839,2.68583737 15.0000839,6 C15.0000839,9.31416263 12.3147765,12 9.00008385,12 C5.68539116,12 3.00008385,9.31416263 3.00008385,6 C3.00008385,2.68583737 5.68539116,0 9.00008385,0 Z" id="🎨Icon"></path>
                    </g>
                </g>
            </g>
        </g>
    </g>
</svg>