<svg xmlns="http://www.w3.org/2000/svg" width="18" height="16" viewBox="0 0 18 16">
    <path fill="#E8B14A" d="M4.669 2.443c1.218.808 1.598 2.327.956 3.553l-.09.158 2.05 1.361L9 6.575 9 6.935c0 .513.386.935.883.993l.117.007h1.227l-1.505 1 6.893 4.575c-.734.995-2.163 1.289-3.245.675l-.146-.09-5.638-3.743-2.05 1.362c.763 1.25.404 2.867-.867 3.71-1.342.892-3.192.582-4.132-.69-.94-1.273-.614-3.026.729-3.918.86-.57 1.927-.648 2.83-.297l.192.082 2.51-1.667-2.51-1.667c-.941.443-2.102.397-3.023-.215-1.342-.89-1.668-2.645-.728-3.917.94-1.273 2.79-1.582 4.132-.691zm-1.696 9.212c-.849 0-1.537.653-1.537 1.459 0 .805.688 1.458 1.537 1.458.85 0 1.538-.653 1.538-1.458 0-.806-.688-1.459-1.538-1.459zM14.756.518l2.637 4.616c.38.667-.12 1.482-.91 1.482h-5.274c-.79 0-1.29-.815-.91-1.482L12.936.518c.395-.69 1.425-.69 1.82 0zM2.973 3.295c-.849 0-1.537.653-1.537 1.458 0 .806.688 1.458 1.537 1.458.85 0 1.538-.652 1.538-1.458 0-.805-.688-1.458-1.538-1.458zM13.644 1.05l-2.46 4.406c-.127.222.038.32.301.32H16.3c.263 0 .442-.098.315-.32L14.082 1.05c-.131-.23-.306-.23-.438 0zm.196 3.503c.282 0 .428.2.428.396 0 .195-.143.42-.428.42-.282 0-.428-.236-.428-.42 0-.185.146-.396.428-.396zm.006-2.603c.167 0 .366.114.414.266l.01.067v1.333c0 .184-.233.334-.424.334-.167 0-.388-.115-.44-.267l-.012-.067V2.283c0-.184.26-.333.452-.333z"/>
</svg>
