<svg xmlns="http://www.w3.org/2000/svg" width="14" height="13" viewBox="0 0 14 13">
    <path fill="#E54D4D" d="M14 10.75c-.647.965-1.933 1.22-2.857.544L6.392 7.817 4.664 9.081c.643 1.16.34 2.663-.73 3.446-1.131.828-2.69.54-3.482-.641-.791-1.182-.517-2.81.614-3.638.776-.568 1.754-.61 2.547-.2L5.729 6.5 3.613 4.952c-.793.41-1.77.368-2.547-.2-1.13-.827-1.405-2.456-.614-3.638C1.244-.068 2.803-.355 3.934.473c1.07.783 1.373 2.285.73 3.446l1.728 1.264 4.75-3.476c.925-.677 2.211-.422 2.858.544L8.192 6.5 14 10.75zM2.5 9C1.672 9 1 9.672 1 10.5S1.672 12 2.5 12c.829 0 1.5-.672 1.5-1.5S3.329 9 2.5 9zm0-8C1.672 1 1 1.672 1 2.5S1.672 4 2.5 4C3.329 4 4 3.328 4 2.5S3.329 1 2.5 1z"/>
</svg>
