<?xml version="1.0" encoding="UTF-8"?>
<svg width="23px" height="20px" viewBox="0 0 23 20" version="1.1" xmlns="http://www.w3.org/2000/svg" xmlns:xlink="http://www.w3.org/1999/xlink">
    <!-- Generator: Sketch 64 (93537) - https://sketch.com -->
    <title>Icons / Send</title>
    <desc>Created with Sketch.</desc>
    <g id="UFE-Cards" stroke="none" stroke-width="1" fill="none" fill-rule="evenodd">
        <g id="Dashboard" transform="translate(-941.000000, -482.000000)" fill="#FFFFFF">
            <g id="Content" transform="translate(80.000000, 0.000000)">
                <g id="Sidebar" transform="translate(804.000000, 0.000000)">
                    <g id="Predate" transform="translate(20.000000, 447.000000)">
                        <g id="Icons-/-Send" transform="translate(37.500000, 35.000000)">
                            <g id="send">
                                <path d="M18.5555721,17.3333333 C18.4826833,17.3333333 18.4097945,17.3211995 18.3404612,17.2986654 L0.784928063,11.4484479 C0.53248394,11.3635114 0.356484165,11.1416365 0.335150859,10.8824936 C0.315595328,10.6233506 0.455150706,10.3772081 0.690705961,10.256737 L20.6906804,0.0730251102 C20.9137913,-0.0387790455 21.1831243,-0.0214450679 21.3857907,0.11982685 C21.5902348,0.261965466 21.6960125,0.502907755 21.6595681,0.745583442 L19.2151268,16.7795127 C19.1857935,16.9701865 19.071127,17.1383261 18.9013494,17.2388632 C18.7964606,17.3012655 18.6764608,17.3333333 18.5555721,17.3333333 L18.5555721,17.3333333 Z M2.68537008,10.7074204 L18.0133505,15.8157436 L20.14757,1.81682326 L2.68537008,10.7074204 Z" id="Shape" fill-rule="nonzero"></path>
                                <path d="M8.98905706,20 C8.92086179,20 8.85179223,19.9895655 8.78534556,19.967827 C8.51518738,19.879134 8.33333333,19.6295762 8.33333333,19.3478454 L8.33333333,13.4784544 C8.33333333,13.3141114 8.39628281,13.1541162 8.50906729,13.0332502 L20.530669,0.207543847 C20.7772211,-0.056796135 21.1942614,-0.0698392262 21.4582995,0.175370889 C21.7232119,0.420581004 21.7372007,0.833612225 21.4906485,1.09795221 L9.64478079,13.7349685 L9.64478079,17.3592088 L11.8331495,14.396688 C12.0473525,14.1080009 12.4582727,14.043655 12.7502884,14.2575617 C13.042304,14.4705989 13.1043792,14.8792824 12.8901761,15.1697086 L9.51800754,19.7347905 C9.39123428,19.9043507 9.19364287,20 8.98905706,20 Z" id="Path" fill-rule="nonzero"></path>
                            </g>
                        </g>
                    </g>
                </g>
            </g>
        </g>
    </g>
</svg>