<svg xmlns="http://www.w3.org/2000/svg" xmlns:xlink="http://www.w3.org/1999/xlink" width="27" height="21" viewBox="0 0 27 21">
    <defs>
        <path id="prefix__a" d="M26.913 17v2.428H14.5v2.43l12.413-.001V25.5H14.5v6.071h20v-4.995H37v4.995C37 32.913 35.88 34 34.5 34h-20c-1.38 0-2.5-1.087-2.5-2.429V19.43C12 18.087 13.12 17 14.5 17h12.413zm6.295 1c.113 0 .219.04.298.115l.253.237c.08.074.124.173.124.279 0 .105-.044.208-.124.282l-1.625 1.523h6.45c.232 0 .416.17.416.388v.334c0 .218-.184.406-.417.406h-6.467l1.643 1.531c.08.074.123.17.123.277 0 .105-.043.203-.123.277l-.253.236c-.08.074-.185.115-.298.115-.113 0-.22-.041-.299-.115l-2.786-2.605c-.08-.075-.123-.174-.123-.28 0-.106.044-.206.123-.28l2.786-2.605c.08-.074.186-.115.299-.115zm2.584-5c.113 0 .22.04.299.115l2.786 2.605c.08.074.123.174.123.28 0 .106-.044.205-.123.28l-2.786 2.605c-.08.074-.186.115-.299.115-.113 0-.219-.04-.298-.115l-.253-.236c-.08-.074-.123-.172-.123-.277 0-.106.043-.203.123-.277l1.643-1.531h-6.467c-.233 0-.417-.188-.417-.406v-.334c0-.218.184-.388.417-.388h6.449l-1.625-1.523c-.08-.074-.124-.177-.124-.282 0-.106.044-.205.124-.28l.253-.236c.08-.074.185-.115.298-.115z"/>
    </defs>
    <g fill="none" fill-rule="evenodd" transform="translate(-12 -13)">
        <use fill="#437DFB" xlink:href="#prefix__a"/>
    </g>
</svg>
