<?xml version="1.0" encoding="UTF-8"?>
<svg width="18px" height="18px" viewBox="0 0 18 18" version="1.1" xmlns="http://www.w3.org/2000/svg" xmlns:xlink="http://www.w3.org/1999/xlink">
    <!-- Generator: Sketch 64 (93537) - https://sketch.com -->
    <title>Icons / Dashboard</title>
    <desc>Created with Sketch.</desc>
    <g id="UFE-Cards" stroke="none" stroke-width="1" fill="none" fill-rule="evenodd">
        <g id="Dashboard" transform="translate(-31.000000, -238.000000)" fill="#FFFFFF">
            <g id="Sidebar-Menu">
                <g id="Links" transform="translate(0.000000, 216.000000)">
                    <g id="1">
                        <g id="Icons-/-Dashboard" transform="translate(31.000000, 22.000000)">
                            <path d="M7,10 C7.55228475,10 8,10.4477153 8,11 L8,17 C8,17.5522847 7.55228475,18 7,18 L1,18 C0.44771525,18 6.76353751e-17,17.5522847 0,17 L0,11 C-6.76353751e-17,10.4477153 0.44771525,10 1,10 L7,10 Z M6,11 L2,11 C1.48716416,11 1.06449284,11.3860402 1.00672773,11.8833789 L1,12 L1,16 C1,16.5128358 1.38604019,16.9355072 1.88337887,16.9932723 L2,17 L6,17 C6.51283584,17 6.93550716,16.6139598 6.99327227,16.1166211 L7,16 L7,12 C7,11.4477153 6.55228475,11 6,11 Z M7,0 C7.55228475,-1.01453063e-16 8,0.44771525 8,1 L8,7 C8,7.55228475 7.55228475,8 7,8 L1,8 C0.44771525,8 6.76353751e-17,7.55228475 0,7 L0,1 C-6.76353751e-17,0.44771525 0.44771525,1.01453063e-16 1,0 L7,0 Z M17,0 C17.5522847,-1.01453063e-16 18,0.44771525 18,1 L18,7 C18,7.55228475 17.5522847,8 17,8 L11,8 C10.4477153,8 10,7.55228475 10,7 L10,1 C10,0.44771525 10.4477153,1.01453063e-16 11,0 L17,0 Z M16,1 L12,1 C11.4871642,1 11.0644928,1.38604019 11.0067277,1.88337887 L11,2 L11,6 C11,6.51283584 11.3860402,6.93550716 11.8833789,6.99327227 L12,7 L16,7 C16.5128358,7 16.9355072,6.61395981 16.9932723,6.11662113 L17,6 L17,2 C17,1.44771525 16.5522847,1 16,1 Z" id="Combined-Shape"></path>
                        </g>
                    </g>
                </g>
            </g>
        </g>
    </g>
</svg>
