<?xml version="1.0" encoding="UTF-8"?>
<svg width="18px" height="17px" viewBox="0 0 18 17" version="1.1" xmlns="http://www.w3.org/2000/svg" xmlns:xlink="http://www.w3.org/1999/xlink">
    <!-- Generator: Sketch 64 (93537) - https://sketch.com -->
    <title>Shape</title>
    <desc>Created with Sketch.</desc>
    <g id="UFE-Cards" stroke="none" stroke-width="1" fill="none" fill-rule="evenodd" opacity="0.649999976">
        <g id="Dashboard" transform="translate(-31.000000, -363.000000)" fill="#FFFFFF" fill-rule="nonzero">
            <g id="Sidebar-Menu">
                <g id="Links" transform="translate(0.000000, 216.000000)">
                    <g id="3" transform="translate(31.000000, 147.000000)">
                        <g id="cut">
                            <path d="M18,2.94276407 C17.1682737,1.68027393 15.5145946,1.34756572 14.3265599,2.23157412 L8.2178823,6.77772688 L5.99660572,5.12442416 C6.82369137,3.60668584 6.43465245,1.64268358 5.05758261,0.617954254 C3.60337999,-0.463945282 1.59979084,-0.0884901971 0.581455257,1.45682434 C-0.436423297,3.00221362 -0.0834546692,5.13219632 1.37078311,6.21454425 C2.36865776,6.95715914 3.62559873,7.0128347 4.64484838,6.47543472 L7.36551931,8.50011961 L4.64509447,10.5245803 C3.62584483,9.98744189 2.36897417,10.0431175 1.3710292,10.7854708 C-0.083138263,11.8678187 -0.436142047,13.9975772 0.58170135,15.5429291 C1.60003693,17.0885052 3.60383702,17.4639603 5.05779355,16.3820608 C6.4346876,15.3573314 6.82365622,13.3933292 5.99681666,11.8755909 L8.21809323,10.2222881 L14.3265247,14.7681793 C15.5145595,15.6524493 17.1682386,15.3195169 18,14.0569894 L10.5324284,8.50008225 L18,2.94276407 Z M3.22126684,5.1945978 C2.30112263,5.1945978 1.55514242,4.40172544 1.55514242,3.42374117 C1.55514242,2.4457569 2.30115779,1.65288454 3.22126684,1.65288454 C4.14162199,1.65288454 4.88739126,2.4457569 4.88739126,3.42374117 C4.88739126,4.40172544 4.14162199,5.1945978 3.22126684,5.1945978 Z M3.22126684,15.3475042 C2.30112263,15.3475042 1.55514242,14.5546318 1.55514242,13.5766475 C1.55514242,12.5986633 2.30112263,11.8057909 3.22126684,11.8057909 C4.14162199,11.8057909 4.88739126,12.5986633 4.88739126,13.5766475 C4.88739126,14.5545944 4.14162199,15.3475042 3.22126684,15.3475042 Z" id="Shape"></path>
                        </g>
                    </g>
                </g>
            </g>
        </g>
    </g>
</svg>
