<svg xmlns="http://www.w3.org/2000/svg" width="18" height="18" viewBox="0 0 18 18">
    <path fill="#BDCFFC" fill-rule="evenodd" d="M8.182 9.536v-7.9c4.478.418 8.05 3.738 8.5 7.9h-8.5zM7.79 16.41c-3.394 0-6.155-2.817-6.155-6.28 0-3.167 2.31-5.794 5.3-6.22v6.22c0 .482.383.872.855.872h6.095c-.417 3.052-2.992 5.408-6.095 5.408zM7.831 0c-.47 0-.851.381-.851.851v1.532C3.06 2.81 0 6.138 0 10.17 0 14.487 3.513 18 7.831 18c4.031 0 7.36-3.06 7.786-6.98h1.532c.47 0 .851-.381.851-.851C18 4.562 13.438 0 7.831 0z"/>
</svg>
