<svg xmlns="http://www.w3.org/2000/svg" xmlns:xlink="http://www.w3.org/1999/xlink" width="18" height="19" viewBox="0 0 18 19">
    <defs>
        <path id="prefix__a" d="M521.5 12c.497 0 .9.404.9.903l-.001.934h.901c1.49 0 2.7 1.214 2.7 2.71V28.29c0 1.496-1.21 2.71-2.7 2.71h-12.6c-1.49 0-2.7-1.214-2.7-2.71V16.547c0-1.496 1.21-2.71 2.7-2.71h.899l.001-.934c0-.499.403-.903.9-.903s.9.404.9.903l-.001.934h7.2l.001-.934c0-.499.403-.903.9-.903zm-11.7 7.25v9.04c0 .498.403.903.9.903h12.6c.497 0 .9-.405.9-.903v-9.04h-14.4zm10.8 1.807c.994 0 1.8.809 1.8 1.806s-.806 1.807-1.8 1.807-1.8-.81-1.8-1.807c0-.997.806-1.806 1.8-1.806zm-10.8-3.614h14.4v-.896c0-.498-.403-.903-.9-.903h-12.6c-.497 0-.9.405-.9.903v.896z"/>
    </defs>
    <g fill="none" fill-rule="evenodd" transform="translate(-508 -12)">
        <use fill="#919191" xlink:href="#prefix__a"/>
    </g>
</svg>
