<svg xmlns="http://www.w3.org/2000/svg" width="15" height="15" viewBox="0 0 15 15">
    <path fill="#919191" d="M14.696 13.23l-3.17-3.17c.77-1.072 1.194-2.353 1.194-3.7 0-1.699-.66-3.295-1.863-4.497C9.657.663 8.059 0 6.36 0c-1.7 0-3.297.661-4.497 1.863C.662 3.063 0 4.661 0 6.36c0 1.699.661 3.296 1.863 4.497 1.2 1.201 2.797 1.864 4.497 1.864 1.347 0 2.627-.422 3.7-1.194l3.17 3.17c.203.203.468.304.733.304.266 0 .531-.101.733-.304.405-.405.405-1.061 0-1.466zM3.398 9.46c-.81-.81-1.255-1.887-1.255-3.032 0-1.144.445-2.22 1.255-3.03.81-.81 1.885-1.255 3.03-1.255 1.145 0 2.221.446 3.03 1.256.81.81 1.256 1.886 1.256 3.03s-.445 2.22-1.255 3.03c-.81.81-1.886 1.255-3.03 1.255-1.146 0-2.223-.446-3.03-1.255z"/>
</svg>
