<svg xmlns="http://www.w3.org/2000/svg" width="233" height="117" viewBox="0 0 233 117">
    <g fill="#F1F1F1">
        <path d="M184 90.608c-5.74 3.313-7.706 10.653-4.392 16.392 3.313 5.74 10.653 7.706 16.392 4.392 5.74-3.313 7.706-10.653 4.392-16.392-3.313-5.74-10.653-7.706-16.392-4.392zm9.83 17.026c-.812.469-1.73.164-2.198-.648-.482-.835-.25-1.772.538-2.227.834-.482 1.716-.188 2.198.647.47.812.296 1.746-.538 2.228zm-2.63-5.801c.2.825-.445 1.214-1.077.622-.729-.684-3.432-3.313-4.611-5.354-1.555-2.694 1.807-4.652 3.37-1.946 1.184 2.054 2.109 5.82 2.317 6.678zM53 57.608C47.26 60.92 45.294 68.26 48.608 74 51.92 79.74 59.26 81.706 65 78.392 70.74 75.08 72.706 67.74 69.392 62 66.08 56.26 58.74 54.294 53 57.608zm9.83 17.026c-.812.469-1.73.164-2.198-.648-.482-.835-.25-1.772.538-2.227.834-.482 1.716-.188 2.198.647.47.812.296 1.746-.538 2.228zm-2.63-5.801c.2.825-.445 1.214-1.077.622-.729-.684-3.432-3.313-4.611-5.354-1.555-2.694 1.807-4.652 3.37-1.946 1.184 2.054 2.109 5.82 2.317 6.678zM90.5 22.206c-4.304 2.485-5.78 7.99-3.294 12.294 2.485 4.304 7.99 5.78 12.294 3.294 4.304-2.485 5.78-7.99 3.294-12.294-2.485-4.304-7.99-5.78-12.294-3.294zm7 12.66c-.514.297-1.084.123-1.366-.366-.29-.503-.133-1.078.366-1.366.528-.305 1.076-.137 1.366.366.283.49.162 1.061-.366 1.366zm-2.058-3.95c.128.592-.37.891-.83.48-.531-.474-2.5-2.301-3.334-3.745-1.1-1.905 1.493-3.414 2.598-1.5.838 1.453 1.432 4.15 1.566 4.766zM141.7-.001c.504 2.459.397 5.078-.434 7.636-2.56 7.879-11.023 12.19-18.901 9.63-7.336-2.383-11.58-9.884-10.063-17.266l12.366.002c-.207 1.97-.244 3.836-.247 4.548-.004 1.056.922 1.339 1.52.494.45-.637 1.999-2.838 3.157-5.043zm-16.725 8.525c-.823-.267-1.62.134-1.89.963-.262.805.116 1.615.963 1.89.87.282 1.628-.157 1.89-.963.27-.829-.093-1.608-.963-1.89zM231.812 27.239c-3.734-1.001-7.573 1.215-8.573 4.95-1.001 3.733 1.215 7.572 4.95 8.572 3.733 1.001 7.572-1.215 8.572-4.95 1.001-3.733-1.215-7.572-4.95-8.572zM229.034 38.5c-.573-.153-.853-.68-.707-1.224.15-.561.668-.857 1.225-.707.588.157.857.663.707 1.224-.146.546-.636.865-1.225.707zm1.298-4.004c-.247.446-.623.354-.617-.165.006-.599.066-2.86.436-4.24.488-1.822 2.422-1.313 1.932.517-.373 1.388-1.494 3.425-1.751 3.888zM39.812 103.239c-3.734-1.001-7.573 1.215-8.573 4.95-1.001 3.733 1.215 7.572 4.95 8.572 3.733 1.001 7.572-1.215 8.572-4.95 1.001-3.733-1.215-7.572-4.95-8.572zM37.034 114.5c-.573-.153-.853-.68-.707-1.224.15-.561.668-.857 1.225-.707.588.157.857.663.707 1.224-.146.546-.636.865-1.225.707zm1.298-4.004c-.247.446-.623.354-.617-.165.006-.599.066-2.86.436-4.24.488-1.822 2.422-1.313 1.932.517-.373 1.388-1.494 3.425-1.751 3.888zM184.5 32.813c-10.044-5.798-22.888-2.357-28.687 7.687-5.798 10.044-2.357 22.888 7.687 28.687 10.044 5.798 22.888 2.357 28.687-7.687 5.798-10.044 2.357-22.888-7.687-28.687zm-17.294 29.615c-1.543-.89-1.945-2.631-1.098-4.098.87-1.509 2.6-1.963 4.098-1.098 1.583.914 1.969 2.59 1.098 4.098-.848 1.468-2.515 2.012-4.098 1.098zm6.676-8.847c-1.072.997-2.257.34-1.936-1.118.37-1.682 1.887-8.005 3.912-11.511 2.671-4.627 8.746-1.149 6.062 3.5-2.038 3.526-6.921 8.091-8.038 9.129zM22.882 21.511c-8.001-2.144-16.227 2.605-18.37 10.607-2.145 8.001 2.604 16.227 10.606 18.37 8.001 2.145 16.227-2.604 18.37-10.606 2.145-8.001-2.604-16.227-10.606-18.37zm-6.71 23.252c-1.147-.308-1.707-1.36-1.415-2.45.301-1.122 1.336-1.712 2.45-1.414 1.177.315 1.715 1.328 1.414 2.45-.292 1.091-1.272 1.73-2.45 1.414zm2.902-6.771c-.552.875-1.491.64-1.542-.414-.06-1.216-.195-5.808.545-8.568.976-3.643 5.81-2.366 4.83 1.294-.746 2.777-3.257 6.777-3.833 7.688z" transform="translate(-4)"/>
    </g>
</svg>
