<svg xmlns="http://www.w3.org/2000/svg" width="60" height="60" viewBox="0 0 60 60">
    <g fill="none" fill-rule="evenodd">
        <circle cx="30" cy="30" r="29" fill="#fff4df" stroke="#e8b14a" stroke-width="2"/>
        <path fill="#e8b14a" fill-rule="nonzero" d="M30 18c-6.627 0-12 5.373-12 12s5.373 12 12 12 12-5.373 12-12-5.373-12-12-12zm0 19.66c-.938 0-1.58-.723-1.58-1.66 0-.964.669-1.66 1.58-1.66.963 0 1.58.696 1.58 1.66 0 .938-.617 1.66-1.58 1.66zm.622-6.339c-.239.815-.992.829-1.243 0-.289-.956-1.316-4.585-1.316-6.942 0-3.11 3.891-3.125 3.891 0-.001 2.371-1.083 6.094-1.332 6.942z"/>
    </g>
</svg>
